<svg version="1.1" id="Layer_1" xmlns="http://www.w3.org/2000/svg" xmlns:xlink="http://www.w3.org/1999/xlink" x="0px" y="0px"
	 width="100%" viewBox="0 0 1024 1024" enable-background="new 0 0 1024 1024" xml:space="preserve">
<path fill="#f0f4efff" opacity="1.000000" stroke="none" 
	d="
M163.400391,481.097961 
	C154.852493,473.319702 151.194946,463.044556 146.718597,453.264709 
	C145.245346,450.046021 144.267868,446.693604 144.677567,443.122833 
	C145.435211,436.519531 143.779678,429.990723 144.429062,423.335236 
	C145.179321,415.646057 149.241867,409.990387 154.234879,404.824982 
	C163.939407,394.785339 163.484528,395.225616 155.954346,383.501556 
	C149.648376,373.683624 144.865860,363.354980 144.308472,350.784241 
	C143.381485,329.877655 152.941422,313.871552 164.577576,298.281830 
	C181.893433,275.082642 206.528473,264.831757 233.875214,259.964874 
	C241.210419,258.659424 248.641632,261.322998 255.802170,263.457245 
	C263.676636,265.804291 264.647675,265.632568 269.736786,259.260193 
	C275.997650,251.420563 284.934021,248.759506 294.084290,246.902908 
	C309.651245,243.744370 325.223389,240.316925 340.963196,238.389938 
	C355.907349,236.560364 370.687836,233.602417 385.750793,232.505005 
	C398.441132,231.580444 411.035065,229.381012 423.690735,227.909927 
	C429.119904,227.278839 434.592621,226.978745 440.053680,226.672867 
	C469.827576,225.005188 499.631470,225.793747 529.423767,225.660187 
	C543.754761,225.595947 558.087341,225.763504 572.417175,225.622406 
	C579.471375,225.552948 585.062988,227.525925 588.206665,234.403061 
	C589.751953,237.783279 592.785461,238.815643 594.470032,235.185989 
	C598.725830,226.015991 606.625366,226.948959 614.027161,227.826370 
	C627.498718,229.423264 641.038452,230.282944 654.479431,232.367737 
	C668.717407,234.576157 682.686768,238.140213 697.013550,239.892609 
	C710.957886,241.598236 724.881287,243.568832 738.661438,246.495071 
	C756.816223,250.350250 774.787842,254.919693 792.787476,259.407532 
	C801.652649,261.617889 810.403259,264.115112 819.018494,267.137939 
	C836.186157,273.161591 848.816895,284.750580 859.122375,299.352356 
	C863.922363,306.153412 868.280457,313.175659 872.225464,320.507935 
	C875.247681,326.125305 876.358704,332.093658 876.251099,338.237457 
	C876.070862,348.528778 877.233643,358.848175 875.450317,369.123474 
	C874.756531,373.121399 872.002930,375.871490 870.189026,379.122070 
	C864.718445,388.925659 859.845093,399.384613 849.072144,404.902649 
	C846.582520,406.177826 847.833801,408.091949 848.444214,409.649811 
	C852.326660,419.558258 856.595703,429.252411 862.314575,438.317261 
	C867.891296,447.156860 873.565674,456.050385 877.952454,465.498138 
	C884.634644,479.889587 884.132019,488.540497 873.934387,498.057770 
	C873.088318,498.847321 872.146973,499.544800 871.199646,500.213959 
	C868.525635,502.102905 863.133606,501.265961 862.801025,504.523926 
	C862.201721,510.393951 860.412781,516.342896 861.685242,522.322571 
	C862.464417,525.984375 862.021423,529.490051 861.647949,533.149658 
	C861.080811,538.707092 857.373596,540.037964 853.081055,540.266174 
	C810.143372,542.549500 767.132385,542.084351 724.226685,540.833984 
	C696.627747,540.029724 668.993042,540.590271 641.450806,539.114075 
	C577.365356,535.679443 513.259033,537.753235 449.167664,537.536682 
	C421.599762,537.443542 394.009430,538.931824 366.429260,539.638855 
	C353.633179,539.966919 340.827423,539.939087 328.033142,540.348816 
	C283.415649,541.777649 238.783417,541.397339 194.156677,541.221313 
	C185.908142,541.188782 177.598969,540.686707 169.379547,539.375977 
	C164.734985,538.635315 162.716705,536.053955 162.699982,531.607727 
	C162.686829,528.111633 162.929062,524.615051 160.903351,521.452332 
	C160.500031,520.822632 160.222275,519.515381 160.574677,519.088135 
	C166.026901,512.478638 163.019485,504.697113 163.566254,497.457428 
	C163.966202,492.162048 163.566666,486.806305 163.400391,481.097961 
M726.950623,267.306244 
	C722.137085,269.777649 721.843872,272.594177 726.460449,275.513885 
	C733.613098,280.037506 736.682861,286.192841 736.496277,294.744965 
	C736.111206,312.396851 736.280029,330.062286 736.366638,347.721436 
	C736.380188,350.492859 735.929260,352.177643 732.777771,352.433350 
	C730.872742,352.587921 728.266113,352.524628 727.616272,354.675232 
	C726.853882,357.198669 729.304077,358.614197 731.079163,359.588501 
	C735.529663,362.031372 736.385498,365.650452 736.281616,370.416840 
	C735.936951,386.224670 735.883728,402.042206 735.972107,417.854614 
	C736.010925,424.804047 733.988098,430.230225 727.290344,433.234467 
	C724.893127,434.309753 723.770142,436.170746 724.217468,438.871643 
	C724.648193,441.472321 726.526978,442.361206 728.776245,442.787994 
	C731.702148,443.343109 734.651001,443.781158 737.570068,444.368591 
	C750.597534,446.990051 763.616943,449.651611 776.641785,452.286224 
	C778.931335,452.749359 781.160706,452.387177 782.307373,450.249847 
	C783.356018,448.295197 781.772278,446.746124 780.463867,445.494659 
	C778.542175,443.656525 776.450867,441.994720 774.418762,440.273254 
	C771.761353,438.022125 769.894653,435.219543 769.796448,431.725220 
	C769.394470,417.410034 769.144531,403.090454 768.876587,388.771790 
	C768.852539,387.486176 768.670044,386.048218 770.031677,385.172363 
	C773.135254,383.176178 780.575745,385.460022 782.015137,388.991547 
	C783.709900,393.149689 785.124939,397.420990 786.777649,401.597168 
	C792.290588,415.527130 797.849731,429.438782 803.406372,443.351379 
	C804.342590,445.695343 804.955322,447.922211 801.808960,449.075287 
	C799.534851,449.908661 797.222839,450.792694 797.708923,453.824158 
	C798.166504,456.678131 799.941162,458.580170 802.733887,459.494141 
	C806.685852,460.787506 810.612244,462.160645 814.577332,463.411835 
	C826.156433,467.065735 837.733032,470.729889 849.352661,474.251160 
	C851.314392,474.845642 853.950745,475.802521 855.312012,473.570068 
	C856.883667,470.992554 855.125061,468.841797 853.157166,467.086517 
	C851.914429,465.978027 850.667786,464.871613 849.381592,463.814514 
	C843.760681,459.194885 839.218140,453.773926 836.451843,446.949158 
	C830.636475,432.602356 824.643066,418.326141 818.991760,403.915497 
	C817.457153,400.002258 815.870544,395.949188 815.646240,391.466553 
	C825.401550,389.313324 833.938660,385.641510 840.245972,377.868103 
	C850.566162,365.149048 853.218384,350.332275 849.915344,334.995209 
	C844.329834,309.059937 827.608276,292.868988 802.331604,285.489807 
	C792.437195,282.601288 782.430725,280.069519 772.408142,277.653748 
	C757.552246,274.073029 742.636597,270.740265 726.950623,267.306244 
M307.282776,395.500031 
	C307.267975,402.331635 306.833527,409.194733 307.343048,415.987000 
	C308.001068,424.758423 304.668610,431.129272 297.523468,435.866394 
	C295.365967,437.296814 293.284943,439.203156 294.425385,442.014740 
	C295.622192,444.965210 298.381256,443.521759 300.583008,443.330841 
	C316.158569,441.980438 331.557190,439.392639 346.954163,436.769928 
	C349.416107,436.350616 352.164459,436.792145 352.637085,433.304230 
	C353.088409,429.973877 350.954895,428.324432 348.324799,427.411194 
	C342.228638,425.294525 340.758362,420.755676 340.712097,414.862213 
	C340.594421,399.874115 341.318787,384.865570 340.039215,369.902435 
	C339.681915,365.724457 341.693054,364.366241 345.377136,363.820343 
	C353.270905,362.650604 361.100067,361.010406 369.012390,360.012054 
	C374.860321,359.274170 380.656128,357.707306 386.220947,357.855316 
	C386.220947,373.267548 385.852844,388.237579 386.352386,403.178619 
	C386.676910,412.884644 385.307098,421.134949 375.539764,425.720093 
	C374.972961,425.986145 374.505463,426.571228 374.123016,427.102356 
	C372.946686,428.735962 372.856873,430.564941 373.728027,432.298096 
	C374.557770,433.948914 376.259033,433.696167 377.728729,433.553589 
	C394.429474,431.933624 411.126251,430.273499 427.825745,428.640656 
	C429.597748,428.467377 431.175446,427.967438 431.701752,426.082031 
	C432.233551,424.177063 431.810028,422.405457 430.184052,421.145874 
	C429.270813,420.438446 428.268677,419.784454 427.209045,419.337677 
	C421.770996,417.044495 419.634064,412.955994 419.600830,407.118225 
	C419.493713,388.295837 420.197632,369.463104 419.019196,350.651337 
	C418.769867,346.671326 419.351227,343.038544 422.980133,340.489227 
	C426.499176,338.017151 425.828949,335.321014 422.492798,333.575043 
	C419.029999,331.762787 418.624329,329.133881 418.723572,325.716705 
	C418.946075,318.057404 418.750824,310.386688 418.926605,302.725220 
	C419.170990,292.071960 418.480377,281.403595 419.460999,270.763367 
	C419.992157,265.000244 422.543213,260.631500 428.061798,258.344452 
	C430.840729,257.192780 432.640381,255.487701 431.562561,252.224228 
	C430.385193,248.659348 427.647797,249.483780 424.939758,249.895462 
	C410.290985,252.122375 395.586548,253.845856 380.759399,254.264801 
	C377.827789,254.347626 375.023193,254.235550 374.289062,258.103485 
	C373.547638,262.009796 375.209259,263.821503 378.864288,264.940796 
	C383.529602,266.369476 386.425751,269.377869 386.384613,274.803589 
	C386.256989,291.632751 386.234772,308.464417 386.403534,325.292816 
	C386.442139,329.142944 384.950562,330.507507 381.326172,330.993103 
	C371.435760,332.318146 361.581146,333.915710 351.722565,335.470306 
	C348.169434,336.030609 344.651978,337.164978 340.807373,335.772858 
	C340.807373,316.986786 340.660095,298.339111 340.917267,279.697052 
	C340.976959,275.371521 343.609985,271.894196 347.643646,269.807983 
	C348.826080,269.196411 350.030579,268.613373 351.153656,267.904297 
	C353.423065,266.471375 354.204742,264.484741 353.172577,261.906769 
	C352.118591,259.274231 350.159576,259.338593 347.806793,259.856934 
	C342.124756,261.108795 336.431274,262.345886 330.695038,263.306152 
	C320.532074,265.007477 310.335938,266.512054 300.149170,268.069244 
	C297.379608,268.492584 295.604309,269.709747 295.237671,272.766144 
	C294.875488,275.785187 296.477875,276.889954 298.972351,277.690704 
	C304.855194,279.579102 307.321838,283.934113 307.326691,289.882416 
	C307.341797,308.378693 307.282806,326.875244 307.383362,345.370972 
	C307.399353,348.312653 306.632080,350.394012 304.097290,352.076874 
	C301.205322,353.996826 300.998291,356.426941 304.199524,358.298584 
	C306.907776,359.882050 307.434692,362.114594 307.392944,365.006348 
	C307.251007,374.836060 307.304535,384.668610 307.282776,395.500031 
M495.884094,394.352600 
	C495.813965,380.521790 495.835602,366.689545 495.614868,352.861145 
	C495.552765,348.970825 496.910980,347.571655 500.830383,347.631409 
	C508.822479,347.753204 516.820862,347.469482 524.816528,347.347015 
	C532.271362,347.232880 537.205017,351.018829 539.583679,358.277710 
	C540.146301,359.994598 539.634277,362.470306 542.321838,363.391327 
	C546.017029,361.425629 546.731079,357.974945 546.664490,354.188385 
	C546.403870,339.370483 546.147705,324.552216 545.789978,309.736511 
	C545.732849,307.368591 546.289368,304.054474 542.919495,303.675873 
	C539.960754,303.343445 539.878174,306.664215 538.807495,308.590332 
	C538.242126,309.607483 537.775696,310.679749 537.267334,311.728455 
	C534.597412,317.235687 530.658569,320.296753 524.114685,320.765045 
	C516.288635,321.325073 508.433960,320.756012 500.662964,321.699860 
	C496.874725,322.159973 495.572113,321.011139 495.608429,317.225281 
	C495.741119,303.395081 495.763641,289.561737 495.602600,275.732208 
	C495.558136,271.913544 497.162109,270.857422 500.660919,270.847443 
	C510.317627,270.819733 519.942505,270.695709 529.608154,271.525391 
	C541.384460,272.536285 550.645935,277.131775 556.990845,287.292511 
	C558.567993,289.818237 560.295105,292.373291 562.447754,294.386047 
	C565.217041,296.975372 568.354126,295.522583 568.723328,291.720947 
	C568.933899,289.552307 568.460571,287.443665 567.920105,285.318237 
	C567.020630,281.781525 566.438660,278.165436 565.653320,274.598083 
	C564.167236,267.847534 565.069214,260.982269 564.597168,254.187119 
	C564.197449,248.432404 562.794861,247.255798 557.170715,247.321121 
	C553.683411,247.361603 550.193848,247.428391 546.708313,247.349625 
	C515.728516,246.649582 484.732544,248.224670 453.758667,246.681808 
	C451.567780,246.572678 449.680359,247.201431 449.381470,249.736313 
	C449.065308,252.418335 448.748016,255.213898 452.349854,256.154144 
	C460.136017,258.186676 462.563263,263.577087 462.476379,271.177277 
	C462.272583,289.005341 462.308167,306.839844 462.585297,324.666473 
	C462.636566,327.966064 462.126099,329.785400 458.998779,331.258514 
	C454.118927,333.557098 453.881317,335.968048 458.257263,338.649872 
	C461.595673,340.695831 462.464355,343.246826 462.425262,346.919373 
	C462.240784,364.248932 461.944031,381.588715 462.362366,398.908569 
	C462.576263,407.763275 460.626465,414.617126 451.952545,418.465942 
	C449.583710,419.517029 447.866516,421.668549 448.553467,424.528931 
	C449.317535,427.710480 452.120972,426.965363 454.350403,426.901093 
	C466.835999,426.541046 479.317108,425.891418 491.804352,425.751160 
	C510.466431,425.541534 529.132385,425.690887 547.796570,425.643188 
	C551.309692,425.634216 554.829407,425.577637 558.128113,426.940521 
	C561.339478,428.267365 562.839355,426.770416 563.599976,423.915680 
	C564.027283,422.311859 564.586060,420.660950 564.573181,419.035339 
	C564.492554,408.835876 566.180542,398.835663 567.486877,388.770294 
	C568.191956,383.337463 569.928650,377.752167 567.896057,371.919128 
	C565.375610,372.574066 563.913086,374.108765 562.559387,375.795258 
	C559.535706,379.562286 556.489014,383.311249 553.498291,387.104309 
	C546.603271,395.848846 537.097534,399.406769 526.465637,400.204346 
	C518.337280,400.814087 510.138855,400.474854 502.006256,401.048767 
	C497.389374,401.374573 495.379486,399.940460 495.884094,394.352600 
M676.057800,434.071686 
	C686.234558,435.574493 696.402100,437.146210 706.596130,438.520905 
	C708.591370,438.790009 711.295959,439.614288 712.359619,436.988892 
	C713.465820,434.258575 712.687256,431.336609 710.041138,430.015869 
	C702.346497,426.175171 700.503967,418.956421 698.688538,411.613434 
	C690.831299,379.832794 682.954041,348.057037 675.115784,316.271729 
	C671.971680,303.521851 668.840515,290.768005 665.837097,277.984558 
	C664.220093,271.102112 665.789429,267.984802 671.689148,265.585449 
	C673.811829,264.722198 676.334229,264.441528 675.773560,261.040924 
	C675.184753,257.470306 672.736084,256.288910 669.708618,256.374481 
	C659.479309,256.663666 649.683594,253.640350 639.623230,252.688171 
	C631.855469,251.953003 624.100647,251.081299 616.337646,250.294296 
	C613.768799,250.033844 612.170959,251.299423 611.606262,253.732117 
	C611.087830,255.965317 612.597351,256.943054 614.322083,257.908569 
	C625.047485,263.912842 626.753540,267.649872 623.004456,279.372986 
	C618.391663,293.797302 614.004089,308.293274 610.915344,323.099182 
	C609.966919,327.645203 608.427612,329.823853 603.995789,330.186646 
	C602.157410,330.337158 600.121704,330.646942 599.639587,332.832642 
	C599.154846,335.030365 600.999023,336.198212 602.499512,337.094971 
	C605.577698,338.934631 605.481567,341.012115 604.428040,344.204590 
	C599.896484,357.937378 595.949036,371.856445 591.835449,385.719971 
	C588.352966,397.456512 588.663879,411.286316 576.139160,418.943512 
	C574.401672,420.005798 574.002380,422.222626 574.946167,424.364532 
	C575.984741,426.721832 577.893494,427.343872 580.235779,427.234772 
	C582.722778,427.118927 585.280884,426.574890 587.685059,426.968536 
	C598.919434,428.808136 610.238220,428.731873 621.552917,428.815918 
	C623.760498,428.832336 626.536621,429.684784 627.563477,426.685822 
	C628.496277,423.961823 626.612549,422.216095 624.619629,420.938446 
	C617.387878,416.302185 615.888977,410.128418 619.276611,402.449890 
	C619.877502,401.088013 620.401367,399.628357 620.597351,398.165131 
	C620.993103,395.210602 622.543335,394.308807 625.397400,394.606842 
	C634.323914,395.539032 643.281189,397.132965 652.196472,396.955872 
	C661.794067,396.765289 664.893311,401.448608 666.547424,409.865692 
	C667.626160,415.355133 666.431458,418.874634 662.170349,421.847107 
	C660.941711,422.704163 659.721619,423.587311 658.422302,424.326141 
	C656.311340,425.526520 656.045959,427.387482 656.413208,429.491058 
	C656.832520,431.892822 658.508484,432.647430 660.733521,432.795563 
	C665.546631,433.115997 670.354187,433.520447 676.057800,434.071686 
M208.112839,462.531036 
	C216.500961,462.952698 225.000763,462.659393 232.689560,459.354858 
	C259.414825,447.868744 277.825378,429.180206 280.419891,398.864594 
	C281.871887,381.898560 275.429932,367.163757 256.422943,360.922424 
	C243.412292,356.650116 229.934036,354.458130 216.744293,351.022217 
	C203.303818,347.520996 198.912125,336.068512 206.759674,324.475067 
	C216.148514,310.604675 229.135712,309.107300 244.342590,314.042023 
	C248.777496,315.481171 249.391708,318.324677 247.385406,322.736938 
	C245.657257,326.537445 243.062302,330.202545 244.647903,334.715118 
	C246.793442,335.125458 248.128906,334.026154 249.564133,333.225464 
	C256.393646,329.415344 260.797241,323.422272 264.301636,316.673279 
	C268.370544,308.837158 272.403595,301.033173 278.016876,294.087524 
	C281.466187,289.819489 282.781677,284.786591 279.530914,279.403839 
	C275.971313,280.574707 274.546509,283.562805 272.542816,285.920197 
	C266.911591,292.545471 263.651245,293.320465 256.404755,289.204712 
	C246.759537,283.726593 236.044418,282.404572 225.869324,284.866608 
	C200.128830,291.094940 180.474472,305.326721 172.242874,331.826843 
	C167.234482,347.950470 169.174698,362.759857 182.247498,374.865601 
	C188.366776,380.532257 195.963959,382.921051 203.794754,384.677795 
	C215.137482,387.222443 226.630356,389.147003 237.885849,392.016083 
	C247.294144,394.414337 251.236984,402.560638 248.417603,411.895355 
	C243.773743,427.270782 223.151947,437.904602 208.443298,431.677582 
	C198.865372,427.622620 191.972778,420.936157 198.764130,408.468140 
	C199.654404,406.833710 201.314041,405.243591 200.181442,402.996185 
	C198.395447,402.744080 197.262848,403.884796 196.264053,404.894348 
	C188.077332,413.169525 179.949142,421.502808 171.831512,429.846008 
	C170.626190,431.084808 169.634094,432.767151 170.304611,434.377808 
	C172.476151,439.594116 170.403030,444.551056 169.699722,449.576263 
	C169.167755,453.377106 169.669556,456.728210 172.446960,459.584625 
	C175.745300,458.503448 177.408081,455.859650 179.289963,453.629333 
	C182.182617,450.201111 185.090088,450.065613 188.257355,452.945953 
	C193.709167,457.903900 200.111511,460.876404 208.112839,462.531036 
M423.137726,474.669037 
	C423.204956,483.801666 423.279419,492.934265 423.334320,502.066956 
	C423.347900,504.326569 423.348297,506.634064 426.488403,506.611755 
	C431.451050,506.576416 436.453522,507.204987 441.349182,505.828156 
	C447.916565,503.981293 451.501709,497.846313 448.916351,491.512970 
	C447.027405,486.885620 446.496246,482.376984 446.688385,477.495209 
	C446.900269,472.110626 444.414825,469.569305 439.074097,468.025726 
	C435.561401,467.010468 432.138062,468.249756 428.687653,467.875916 
	C424.269714,467.397247 422.576324,469.491058 423.137726,474.669037 
M302.137512,474.435242 
	C299.515106,474.545654 298.134460,475.808868 298.332123,478.535858 
	C299.063934,488.633575 299.749695,498.734985 300.562378,508.826202 
	C300.752686,511.189362 301.816864,512.911377 304.729645,512.611206 
	C308.360382,512.237000 312.024414,512.171143 315.648743,511.752777 
	C324.646606,510.714111 329.255249,501.602295 324.459869,494.128662 
	C322.800232,491.542084 322.295349,489.196350 323.068878,486.191315 
	C324.669464,479.973145 320.464935,474.462250 313.990051,474.186829 
	C310.343994,474.031738 306.679077,474.319061 302.137512,474.435242 
M382.499268,501.909027 
	C382.639130,502.728149 382.889282,503.545898 382.899170,504.366608 
	C382.935669,507.399109 384.109344,508.977081 387.444153,508.678223 
	C390.970215,508.362152 390.455048,505.840820 390.647278,503.566711 
	C390.835663,501.338470 389.973267,498.967834 391.592590,496.549316 
	C395.004089,498.430542 396.720642,501.743439 398.826172,504.551239 
	C401.888306,508.634644 405.231689,508.324066 409.597046,506.035156 
	C407.180267,502.687622 405.064880,499.550812 402.731110,496.585876 
	C400.596802,493.874390 400.015839,491.834564 403.071167,489.032471 
	C406.669891,485.731995 407.086700,481.190216 405.376343,476.588257 
	C403.840576,472.456146 400.674103,470.018524 396.489258,469.494019 
	C392.725159,469.022308 388.856110,469.309357 385.036041,469.389679 
	C382.351776,469.446136 381.091553,470.923065 381.520233,473.628571 
	C382.960602,482.719238 382.023071,491.887512 382.499268,501.909027 
M512.783203,493.891663 
	C514.688232,496.600891 516.790833,499.195038 518.451599,502.046509 
	C520.891296,506.235596 524.133606,506.405518 528.866516,504.493256 
	C522.754089,496.582245 526.299744,488.488800 527.551819,480.361450 
	C528.681946,473.025940 524.882080,467.722626 517.806519,466.671783 
	C514.386841,466.163910 510.845947,466.437927 507.359680,466.425873 
	C505.348267,466.418915 504.254883,467.586121 504.204346,469.529419 
	C503.923676,480.320435 503.623749,491.112183 503.517639,501.905518 
	C503.497162,503.989349 504.572388,505.706879 507.244232,505.623138 
	C509.852173,505.541412 510.471466,504.095215 510.766144,501.786987 
	C511.107483,499.113159 509.750885,496.114716 512.783203,493.891663 
M592.761108,493.595276 
	C593.919617,489.439178 597.140930,490.929169 599.741089,491.201843 
	C602.279419,491.468079 604.111694,492.798492 604.129028,495.712830 
	C604.141907,497.878754 604.232727,500.045898 604.184143,502.210114 
	C604.125061,504.839691 604.573547,506.712494 607.927673,506.744598 
	C611.263794,506.776489 611.590088,504.883148 611.837524,502.295898 
	C612.758728,492.662720 612.606567,482.995850 612.989929,473.346893 
	C613.091431,470.793152 613.277893,468.588837 609.834045,468.418610 
	C606.429565,468.250336 605.561462,470.407990 605.387878,473.164642 
	C605.231018,475.656677 605.321228,478.167633 605.093323,480.651031 
	C604.646545,485.521271 601.034058,484.322174 597.946777,484.351898 
	C594.819092,484.381958 593.309692,483.296967 593.604004,479.936157 
	C593.864929,476.956238 593.791382,473.943115 593.784607,470.944824 
	C593.778809,468.370544 592.101868,467.540222 589.846130,467.428772 
	C587.650940,467.320312 586.409119,468.219788 586.270630,470.560547 
	C585.651733,481.020630 585.000427,491.478851 584.317078,501.934906 
	C584.144104,504.582306 585.173279,505.950470 587.907959,506.222687 
	C590.888306,506.519409 591.650940,504.987762 591.796143,502.409912 
	C591.945496,499.757080 592.383057,497.120483 592.761108,493.595276 
M659.810364,490.328339 
	C661.017517,480.060852 653.278625,470.184662 641.464050,471.165527 
	C634.410583,471.751099 629.786621,475.884827 626.907593,484.887115 
	C623.947937,494.141754 628.780396,504.742554 637.260925,507.598724 
	C648.414490,511.355103 658.273743,504.173676 659.810364,490.328339 
M348.035278,477.492340 
	C345.735199,486.346771 343.413025,495.195587 341.152374,504.060089 
	C340.658844,505.995239 338.933136,508.523071 342.142548,509.487671 
	C344.850800,510.301605 347.655212,509.871948 348.274811,506.292999 
	C349.189392,501.010162 353.739410,503.099396 356.691467,502.110199 
	C359.564301,501.147614 361.007660,503.359070 361.879089,505.609802 
	C363.681000,510.264130 366.792755,509.607666 370.181335,508.205231 
	C370.992523,506.161713 369.921478,504.684174 369.326752,503.201569 
	C365.671967,494.090668 361.929993,485.014740 358.205994,475.931702 
	C357.114929,473.270538 356.018036,470.285889 352.456238,470.674011 
	C349.111084,471.038452 348.958557,474.222778 348.035278,477.492340 
M483.762329,473.644775 
	C486.622498,472.492065 485.864746,470.074768 485.355499,468.120514 
	C484.842010,466.149780 482.797272,466.308838 481.143463,466.295288 
	C476.821930,466.259796 472.497284,466.371857 468.179016,466.246857 
	C464.631714,466.144226 463.223907,468.145966 463.498199,471.199097 
	C464.422424,481.486359 464.082001,491.793060 464.245880,502.091034 
	C464.284851,504.539093 465.238495,505.815674 467.783905,505.797119 
	C472.770050,505.760773 477.756683,505.759918 482.742950,505.785278 
	C485.366302,505.798615 486.686310,504.724396 486.759735,501.933533 
	C486.836090,499.029327 485.443268,498.113220 482.816376,498.176331 
	C480.491516,498.232117 478.162537,498.172394 475.836609,498.114166 
	C472.967743,498.042389 471.828308,496.514343 471.666107,493.671997 
	C471.440369,489.716248 474.125793,489.559326 476.826752,489.231750 
	C479.100220,488.955994 481.596893,489.223938 481.699402,485.692413 
	C481.801697,482.166168 479.507965,482.153748 477.095520,482.028198 
	C476.435272,481.993866 475.780701,481.845398 475.124146,481.745117 
	C472.454895,481.337524 471.634766,479.637451 471.718231,477.129425 
	C471.802856,474.588043 473.561768,474.224915 475.452759,474.088684 
	C477.937836,473.909637 480.433105,473.872375 483.762329,473.644775 
M560.144409,466.243988 
	C558.982117,466.229919 557.809875,466.110413 556.659302,466.219513 
	C550.883606,466.767029 546.398499,470.916809 545.413025,476.548126 
	C544.441528,482.100067 546.708069,485.917419 552.675659,488.649719 
	C554.182983,489.339874 555.785278,489.820343 557.307434,490.481140 
	C559.125732,491.270508 560.398499,492.534302 560.075012,494.700378 
	C559.751648,496.865326 558.012878,497.619965 556.196472,498.062531 
	C553.952209,498.609344 551.849976,497.782837 550.000916,496.692322 
	C547.182922,495.030457 545.829224,496.411713 544.457214,498.679413 
	C542.859253,501.320496 544.297485,502.658234 546.320435,503.893311 
	C548.473755,505.208069 550.791870,506.150940 553.271362,506.546722 
	C560.025696,507.624817 565.785217,504.015198 567.975464,497.433350 
	C569.909302,491.621979 567.438599,486.605347 560.966553,483.317444 
	C559.339050,482.490631 557.637024,481.811005 555.975952,481.049225 
	C554.366760,480.311127 553.046814,479.177155 553.153931,477.317535 
	C553.267456,475.346436 555.065735,474.806885 556.598328,474.138580 
	C559.812561,472.737091 562.658691,474.971497 565.558960,475.277527 
	C569.481506,469.316589 568.851379,468.162354 560.144409,466.243988 
M693.265991,478.197662 
	C688.594421,473.980621 682.642273,475.180389 677.162415,474.478699 
	C675.431641,474.257111 674.589111,475.567841 674.355286,477.297180 
	C673.018433,487.183624 673.332153,497.143372 672.984802,507.073151 
	C672.900391,509.487427 674.010803,510.742767 676.565552,510.732697 
	C678.892273,510.723511 679.740112,509.589935 679.941345,507.397400 
	C680.206970,504.503113 680.733398,501.632721 681.130798,498.869537 
	C695.753052,497.962372 700.475281,490.146637 693.265991,478.197662 
z"/>
<path fill="#f0f4efff" opacity="1.000000" stroke="none" 
	d="
M254.000061,560.665527 
	C268.470886,560.623840 282.490906,559.602295 296.384674,559.998474 
	C323.024963,560.758057 349.650299,560.390137 376.279694,560.648926 
	C387.443878,560.757446 398.630920,561.104370 409.771667,560.580139 
	C453.727997,558.512085 497.706268,560.611816 541.656006,559.598267 
	C562.261047,559.123047 582.833801,559.547180 603.422974,559.688538 
	C616.034241,559.775208 628.671509,558.631958 641.257629,559.790283 
	C661.216492,561.627014 681.220642,559.747498 701.155640,560.808411 
	C714.788269,561.533875 728.404114,561.429688 741.930176,560.447876 
	C754.102173,559.564392 766.205750,561.184937 778.230408,560.402466 
	C795.166809,559.300476 812.145447,560.419983 829.038025,558.706909 
	C831.357361,558.471680 833.734375,558.559265 835.621887,560.339722 
	C835.309631,568.207031 827.822266,573.227173 818.818604,573.049133 
	C805.592957,572.787598 792.321472,574.745605 779.130737,572.462524 
	C777.831665,572.237793 776.470337,572.344543 775.137939,572.344482 
	C735.976196,572.342590 696.814087,572.261902 657.652893,572.410645 
	C648.133423,572.446777 638.616882,573.240662 628.692993,573.705139 
	C629.943237,577.638123 631.963196,579.819519 635.898193,579.648254 
	C651.550110,578.967285 667.161682,581.149536 682.780090,580.503174 
	C689.912415,580.208008 696.969055,580.214966 704.068298,580.633179 
	C706.438782,580.772827 708.387634,580.920166 708.402466,584.015442 
	C708.415710,586.777039 711.803162,587.588684 712.391724,590.980103 
	C706.616943,590.820068 700.986511,591.103882 695.401672,591.239868 
	C681.411621,591.580322 667.407898,591.352905 653.409607,591.360596 
	C652.077454,591.361328 650.723022,591.268860 649.417725,591.470581 
	C646.616516,591.903687 644.695740,593.429199 644.964661,596.474243 
	C645.242371,599.617859 647.895874,598.603149 649.668701,598.605652 
	C689.663635,598.661926 729.658691,598.654785 769.653687,598.661926 
	C773.986389,598.662659 778.319275,598.707703 782.651733,598.677185 
	C786.366333,598.651001 787.098633,600.516907 785.490662,603.437683 
	C782.978638,608.000671 779.644836,611.430786 773.827576,611.369568 
	C765.686096,611.283752 757.498230,610.393921 749.452332,610.646057 
	C738.311279,610.995117 727.149597,611.558289 716.037964,611.114685 
	C695.898987,610.310608 675.766602,610.275146 655.625366,610.329102 
	C654.293213,610.332642 652.956360,610.325073 651.630249,610.430420 
	C649.637024,610.588806 649.254028,611.963806 649.422974,613.635010 
	C649.605896,615.444580 650.785278,615.403076 652.292847,615.445740 
	C674.244019,616.066895 696.184021,615.017517 718.124756,615.083191 
	C731.212280,615.122314 744.239319,617.333008 757.368408,616.656799 
	C757.376587,622.485596 753.792908,627.160339 748.652405,628.202698 
	C741.771484,629.598022 734.842834,629.958191 727.873352,628.589478 
	C726.098816,628.240967 724.223511,628.344849 722.394470,628.343994 
	C705.729858,628.336304 689.047119,628.812134 672.408813,628.154236 
	C664.762573,627.851868 657.464111,631.588257 649.807190,629.303223 
	C648.863953,629.021729 647.757019,629.500610 647.515015,630.714844 
	C647.288879,631.849731 647.951111,632.638672 648.899414,633.121521 
	C652.063660,634.732666 655.502014,635.685364 658.980713,635.369690 
	C670.436462,634.330139 681.833618,634.550415 693.305969,635.405151 
	C702.422607,636.084473 711.625366,635.569153 720.788147,635.702698 
	C722.628967,635.729492 725.108459,634.828674 725.987305,637.399353 
	C726.739502,639.599609 725.003113,641.220337 723.735962,642.660095 
	C720.964844,645.808777 717.242188,647.196289 713.115662,647.305420 
	C708.188477,647.435730 703.298218,647.749695 698.319519,647.598938 
	C680.004944,647.044312 661.663391,647.434509 643.333435,647.290405 
	C639.055176,647.256775 637.749146,649.187561 638.061279,653.106140 
	C640.929321,654.145569 643.778809,653.611572 646.562073,653.639282 
	C662.362061,653.796692 678.176575,653.194519 693.949890,654.651917 
	C695.897278,654.831848 698.314880,654.322266 698.954651,656.855835 
	C699.635315,659.551147 697.201233,660.381897 695.473450,661.653381 
	C687.088135,667.824463 677.356506,667.018616 668.060059,666.077942 
	C657.391724,664.998413 646.781677,665.766663 636.155884,665.375854 
	C631.828796,665.216614 627.491211,665.338684 623.158447,665.340271 
	C621.488525,665.340881 619.797546,665.276733 618.485107,666.611145 
	C617.440491,667.673279 616.024353,668.676331 616.654236,670.396118 
	C617.234924,671.981445 618.845154,671.651184 620.135864,671.653503 
	C633.467529,671.677551 646.799194,671.671448 660.130859,671.682251 
	C661.796692,671.683594 663.475708,671.614624 665.124695,671.795654 
	C666.773010,671.976685 668.520813,672.334900 669.087402,674.240417 
	C669.637878,676.091553 668.610962,677.444458 667.299255,678.587463 
	C661.043701,684.038818 653.752625,686.274780 645.590881,684.984253 
	C643.102783,684.590881 640.657349,684.342529 638.169922,684.340088 
	C617.536194,684.320129 596.886963,684.829773 576.272217,684.201050 
	C542.306824,683.165161 508.343018,683.198608 474.378784,683.423767 
	C462.422028,683.502991 450.472412,684.639893 438.488312,684.352844 
	C425.691772,684.046265 412.924713,682.995850 400.100067,683.261841 
	C391.951569,683.430847 383.901581,684.250671 375.811676,685.056885 
	C369.430725,685.692810 363.291962,683.719421 357.763672,680.465576 
	C355.727844,679.267273 354.375702,676.963806 354.964508,674.485962 
	C355.617432,671.738342 358.254517,672.662842 360.035095,672.729004 
	C375.851715,673.316956 391.609467,671.588623 407.408997,671.624573 
	C408.819550,671.627747 410.498535,672.098450 411.492065,669.952026 
	C409.366760,665.905884 406.408875,663.408447 401.280548,664.806458 
	C400.172089,665.108521 398.994293,665.324951 397.852112,665.309570 
	C377.881348,665.041260 357.952087,666.976318 337.971802,666.403259 
	C334.123718,666.292847 330.714050,665.486694 327.966675,662.771545 
	C326.387054,661.210449 325.191711,659.229431 325.981018,656.938232 
	C326.781158,654.615845 328.973083,653.959778 331.194794,653.759705 
	C332.848969,653.610779 334.524902,653.692993 336.191162,653.691406 
	C349.689484,653.678284 363.188080,653.621826 376.685883,653.699890 
	C379.405579,653.715637 381.975616,653.184937 384.532196,652.474243 
	C385.986298,652.069946 386.663788,650.887939 386.464691,649.387573 
	C386.279999,647.995911 385.232300,647.504028 383.957886,647.433594 
	C382.960419,647.378540 381.959808,647.359924 380.960602,647.359680 
	C363.962738,647.355225 346.951233,646.960510 329.973450,647.543884 
	C322.834595,647.789185 315.776093,647.000183 308.670227,647.282043 
	C304.214813,647.458740 301.093048,645.006531 299.346069,641.051636 
	C297.890778,637.757080 298.594940,635.602539 302.837463,635.639343 
	C312.335510,635.721802 321.836670,635.770508 331.333160,635.618713 
	C345.072510,635.399170 358.810181,635.034790 372.544891,634.612671 
	C374.554749,634.550964 377.636475,634.692444 377.316315,631.670166 
	C377.002869,628.710510 374.190948,628.304443 371.484772,628.310486 
	C349.487732,628.359375 327.490143,628.281433 305.493683,628.407288 
	C300.310944,628.436951 295.177246,628.136292 290.129791,627.152161 
	C286.959259,626.533997 284.014008,626.412842 280.811890,627.117432 
	C275.762024,628.228638 269.418823,623.889404 267.804871,618.453857 
	C273.435822,615.415283 279.865509,615.956116 285.647339,616.234131 
	C298.478668,616.851196 311.285126,616.455811 324.097382,616.610657 
	C339.593170,616.797852 355.092987,616.669983 370.590973,616.634766 
	C372.339722,616.630737 374.628632,617.237671 375.350494,614.956055 
	C376.306885,611.933228 375.206604,610.232239 371.687225,610.296509 
	C364.690399,610.424316 357.689697,610.338440 350.690582,610.340332 
	C324.103027,610.347534 297.514587,610.239502 270.928528,610.442932 
	C264.326965,610.493408 257.723358,611.462158 251.139114,612.178223 
	C246.735641,612.657104 240.487320,609.234924 238.839523,605.164917 
	C237.125671,600.931702 238.907730,598.664978 244.078079,598.663391 
	C287.405975,598.649902 330.733948,598.621399 374.061615,598.716125 
	C378.153717,598.725098 380.946960,597.931885 380.902161,592.423828 
	C375.666321,592.423828 370.377716,592.880371 365.193604,592.338135 
	C349.649506,590.712341 334.000824,592.247009 318.474152,590.516968 
	C316.824066,590.333191 315.147430,590.395264 313.484070,590.321350 
	C310.509674,590.189331 307.443665,589.747559 307.415283,585.978088 
	C307.387085,582.233215 309.487213,580.750549 313.503571,580.578125 
	C337.626099,579.542297 361.755554,579.650818 385.886902,579.667725 
	C391.493530,579.671631 391.493530,579.652954 394.720337,574.305359 
	C393.792297,572.919617 392.327881,573.380920 391.080048,573.362976 
	C365.619171,572.995605 340.152924,572.861877 314.698395,572.244141 
	C302.422729,571.946228 290.120453,571.716919 277.920105,572.550110 
	C265.433655,573.402954 252.983749,573.228088 240.519318,573.271118 
	C233.058060,573.296936 225.596085,572.485474 218.131607,572.430054 
	C213.002747,572.391968 207.872421,573.190857 202.736694,573.285095 
	C195.147278,573.424255 189.881317,569.493042 187.040436,561.882935 
	C188.764999,559.211487 191.562347,559.686096 194.135956,559.678040 
	C213.930176,559.615784 233.694229,561.385132 254.000061,560.665527 
M418.009216,593.790405 
	C420.500977,593.608093 423.002258,593.347595 425.421997,594.247375 
	C429.007080,595.580566 431.353302,597.837830 431.304932,601.980164 
	C431.258270,605.975037 428.611237,606.917725 425.358826,607.258667 
	C423.682648,607.434326 422.394196,608.169189 422.592102,610.074524 
	C422.774597,611.831421 424.032196,612.536133 425.720428,612.695374 
	C430.792114,613.173523 435.061859,611.372070 438.000519,607.405640 
	C440.925751,603.457336 440.662323,598.889343 438.490112,594.605408 
	C432.815735,583.414551 417.456238,580.919922 406.520233,589.325439 
	C391.206726,601.095520 388.838470,623.357788 401.248047,639.308350 
	C412.267914,653.472656 427.548737,659.671448 444.741089,660.463379 
	C465.554901,661.422302 482.826660,652.394714 497.399139,638.088928 
	C502.805511,632.781433 507.532959,626.782471 512.447266,621.237305 
	C514.500610,621.565063 515.333374,622.932983 515.969727,624.232605 
	C522.991699,638.573425 535.791565,646.502197 549.206116,653.313965 
	C570.805725,664.282227 592.024658,663.752686 612.272827,649.407104 
	C632.340088,635.189758 635.540466,609.454712 619.310059,591.979431 
	C611.624817,583.704712 599.445984,581.881775 590.680786,587.694153 
	C585.610168,591.056702 582.774292,599.423096 584.808777,605.018127 
	C586.800415,610.495361 591.661499,613.334595 598.433777,612.873169 
	C600.388184,612.739990 603.033752,612.893616 603.368774,610.458923 
	C603.799744,607.327271 600.628906,608.246277 598.995605,607.752563 
	C596.293152,606.935791 593.749023,605.902588 593.135742,602.986023 
	C592.537842,600.142822 594.275024,597.882507 596.269165,596.011780 
	C597.891052,594.490112 599.878418,593.892761 602.136536,593.606750 
	C614.363586,592.058655 621.813599,607.066101 619.820129,615.164673 
	C618.604980,620.101379 616.289978,624.399719 611.367065,626.197327 
	C601.492981,629.802795 591.813843,629.435181 582.630737,623.706848 
	C573.471802,617.993530 565.887817,610.598511 559.063599,602.313904 
	C552.660583,594.540649 545.639038,587.509766 536.021240,583.633667 
	C531.646057,581.870361 527.225342,581.741760 522.820129,582.934082 
	C515.659241,584.872253 509.087189,585.115723 501.840668,583.158264 
	C491.779236,580.440369 484.014984,585.146179 476.725220,591.038452 
	C470.095306,596.397339 464.615753,602.932678 459.018555,609.314270 
	C451.383911,618.018738 442.354980,624.601990 431.207336,628.023254 
	C422.775970,630.610962 412.700043,628.362061 408.537384,623.090393 
	C400.177246,612.503052 404.065002,599.405945 418.009216,593.790405 
M539.931335,670.295776 
	C540.586121,669.877563 541.589417,669.866577 541.723450,668.552063 
	C538.249939,666.922119 535.091064,664.648438 530.626038,666.006836 
	C528.185913,666.749268 525.285461,666.506409 522.685974,666.104187 
	C512.402405,664.513000 502.074432,665.683838 491.775177,665.363037 
	C489.363495,665.287903 487.200287,666.000671 486.791901,669.264038 
	C488.931244,669.752136 490.842804,670.557922 492.758057,670.566711 
	C508.250519,670.637878 523.743652,670.559326 539.931335,670.295776 
M457.076660,580.790039 
	C461.719818,580.701355 463.706543,577.358032 466.144562,573.746826 
	C459.420502,573.746826 453.282837,573.746826 446.267426,573.746826 
	C449.710938,577.221130 450.151337,583.100464 457.076660,580.790039 
M563.430359,579.035156 
	C567.070007,582.636353 573.778137,580.048218 576.710205,573.455688 
	C571.198608,573.322571 565.934021,572.779785 560.731018,573.652100 
	C560.531738,576.216370 562.434326,576.954102 563.430359,579.035156 
z"/>
<path fill="#f0f4efff" opacity="1.000000" stroke="none" 
	d="
M560.859802,690.413818 
	C578.346985,688.087891 595.412842,691.303589 612.508972,690.765808 
	C618.948730,690.563293 625.483765,689.884460 631.882446,691.610168 
	C633.289673,691.989624 635.007324,691.731201 635.167786,693.867798 
	C635.299377,695.620667 634.205994,696.504578 632.925110,697.434509 
	C627.239929,701.561768 620.672791,703.310547 613.911987,704.246582 
	C597.010437,706.586609 580.145325,704.833374 563.275635,703.499817 
	C555.833069,702.911560 548.354492,703.485779 540.888550,702.438843 
	C526.509827,700.422485 511.982544,700.951904 497.557129,701.478638 
	C479.191742,702.149353 460.859222,703.812988 442.527344,705.239075 
	C438.296570,705.568237 434.279327,704.415649 430.134888,704.336548 
	C423.152100,704.203308 416.266235,705.813660 409.250977,705.338928 
	C403.084381,704.921570 397.521545,703.216614 392.965210,698.883545 
	C391.622772,697.606812 390.198273,696.181091 390.966675,694.135315 
	C391.802490,691.910095 393.906555,691.732544 395.950317,691.678345 
	C396.283203,691.669495 396.616394,691.672363 396.949432,691.668335 
	C425.058929,691.328064 453.197052,691.651123 481.268860,690.438293 
	C503.899963,689.460632 526.499634,690.073669 549.109802,689.727234 
	C552.891541,689.669312 556.681274,690.133972 560.859802,690.413818 
z"/>
<path fill="#f0f4efff" opacity="1.000000" stroke="none" 
	d="
M718.271973,585.511353 
	C718.842529,581.003174 721.185059,579.593506 725.555786,579.529663 
	C735.201721,579.388733 744.773743,580.370850 754.384094,580.663147 
	C770.827881,581.163269 787.216553,578.944885 803.661377,579.684021 
	C805.525513,579.767822 807.974792,578.864380 808.963440,581.251465 
	C809.952087,583.638367 808.752319,585.784668 807.222961,587.650452 
	C803.095947,592.685181 797.338684,593.025757 791.703735,592.186462 
	C783.907043,591.025208 776.127014,591.460388 768.340942,591.393799 
	C754.040894,591.271423 739.737427,591.212708 725.439392,591.414917 
	C721.189819,591.475037 718.747742,590.216431 718.271973,585.511353 
z"/>
<path fill="#f0f4efff" opacity="1.000000" stroke="none" 
	d="
M302.784821,589.649414 
	C301.278290,591.465515 299.550171,591.335266 297.902863,591.327209 
	C274.605042,591.213745 251.336746,592.873901 228.028564,592.431702 
	C222.929993,592.334961 219.076035,590.478394 215.803101,586.817200 
	C214.542923,585.407471 213.182144,583.977905 214.022919,581.991821 
	C214.834717,580.074158 216.787872,579.729492 218.648727,579.720581 
	C226.644577,579.682190 234.712570,579.051392 242.615829,579.910339 
	C249.947174,580.707275 257.220459,580.582825 264.516235,580.619324 
	C275.334991,580.673401 286.155182,580.393616 296.975098,580.292236 
	C301.904114,580.246033 303.610260,582.817871 302.784821,589.649414 
z"/>
<path fill="#f0f4efff" opacity="1.000000" stroke="none" 
	d="
M473.549133,708.996643 
	C504.245361,708.997681 534.595032,706.858337 564.503845,711.873901 
	C564.940491,714.436035 563.714539,714.880188 562.398376,715.346619 
	C555.798889,717.685486 548.972046,719.195557 542.014771,719.275085 
	C523.907776,719.482056 505.780396,719.771729 487.694458,719.113586 
	C479.586761,718.818481 470.992584,719.598083 463.450714,715.126587 
	C462.491669,714.557983 461.232788,714.318665 460.666504,712.638062 
	C464.470306,710.288208 468.839478,709.858643 473.549133,708.996643 
z"/>
<path fill="#f0f4efff" opacity="1.000000" stroke="none" 
	d="
M774.638428,303.963379 
	C783.486938,305.938049 792.058960,307.232056 799.861389,311.318176 
	C813.408508,318.412750 820.346008,333.884003 816.126648,347.923584 
	C813.552612,356.488373 806.104187,361.745361 797.129333,360.803101 
	C789.178711,359.968384 781.434875,357.934845 773.714050,355.856812 
	C770.592590,355.016663 769.526489,353.311432 769.570374,350.126282 
	C769.760742,336.308655 770.178711,322.481873 769.027527,308.680359 
	C768.708191,304.852234 770.114868,302.915619 774.638428,303.963379 
z"/>
<path fill="#f0f4efff" opacity="1.000000" stroke="none" 
	d="
M635.250366,370.131714 
	C632.541138,369.679260 630.273499,369.272369 626.904968,368.667969 
	C631.726013,350.093567 636.466309,331.829956 641.282654,313.273529 
	C643.804565,315.188477 656.439392,367.418304 655.811584,372.086456 
	C649.125122,371.451965 642.408508,370.814606 635.250366,370.131714 
z"/>
<path fill="#f0f4efff" opacity="1.000000" stroke="none" 
	d="
M440.233063,491.855408 
	C441.699188,494.625458 441.246277,496.744202 438.890961,498.096649 
	C436.629730,499.395020 434.043488,499.596497 431.901459,497.987946 
	C430.063293,496.607574 430.303345,494.071228 431.211609,492.543427 
	C433.490173,488.710724 436.778412,489.474396 440.233063,491.855408 
z"/>
<path fill="#f0f4efff" opacity="1.000000" stroke="none" 
	d="
M438.510132,477.651184 
	C439.310455,480.560211 438.093872,482.134979 435.771301,482.868347 
	C434.360718,483.313690 432.724823,483.471161 431.583740,482.282410 
	C430.314117,480.959656 430.299744,478.939697 431.030518,477.636078 
	C433.109894,473.926636 435.798187,475.540619 438.510132,477.651184 
z"/>
<path fill="#f0f4efff" opacity="1.000000" stroke="none" 
	d="
M314.503754,496.231812 
	C317.559814,497.464874 319.164459,499.468018 317.549377,502.133881 
	C315.838104,504.958435 312.588806,505.510773 309.622864,504.690613 
	C306.874176,503.930542 307.505371,501.161652 307.837250,499.173065 
	C308.451599,495.492035 311.546570,496.199951 314.503754,496.231812 
z"/>
<path fill="#f0f4efff" opacity="1.000000" stroke="none" 
	d="
M314.728027,483.750183 
	C315.668884,488.726044 312.855591,489.521576 309.257507,489.248871 
	C305.919464,488.995850 306.527374,486.311615 306.805878,484.354614 
	C307.271912,481.079132 310.755554,480.706848 314.728027,483.750183 
z"/>
<path fill="#f0f4efff" opacity="1.000000" stroke="none" 
	d="
M390.028412,480.283325 
	C390.961212,477.517334 392.782257,477.555054 394.426605,478.609253 
	C396.479980,479.925720 395.490326,482.170746 395.374786,484.039124 
	C395.269897,485.735718 393.925446,486.243713 392.541473,485.867981 
	C389.870331,485.142822 390.056366,482.800079 390.028412,480.283325 
z"/>
<path fill="#f0f4efff" opacity="1.000000" stroke="none" 
	d="
M512.849609,482.577454 
	C512.293457,481.393036 511.851288,480.467255 511.802734,479.521240 
	C511.684479,477.217285 511.415710,474.623322 514.777283,474.394318 
	C517.271484,474.224426 518.927979,475.664124 519.338562,478.002441 
	C519.840515,480.861450 518.442566,482.770111 515.514893,483.251190 
	C514.767517,483.373962 513.935669,482.982239 512.849609,482.577454 
z"/>
<path fill="#f0f4efff" opacity="1.000000" stroke="none" 
	d="
M633.936401,490.077332 
	C633.973572,489.333313 633.979553,488.998230 634.040833,488.673523 
	C635.377991,481.590698 639.024109,478.175934 644.720764,478.662750 
	C649.172974,479.043274 652.300049,482.956177 652.656738,488.592804 
	C653.005371,494.102142 648.832581,499.906647 643.793396,500.922119 
	C638.732422,501.941986 634.798645,497.781464 633.936401,490.077332 
z"/>
<path fill="#f0f4efff" opacity="1.000000" stroke="none" 
	d="
M688.686157,489.396118 
	C686.679932,492.210449 684.144165,493.482849 681.912598,491.048584 
	C679.743225,488.682220 680.235229,485.074524 682.065002,482.820709 
	C683.826355,480.651245 686.558472,481.329956 688.228516,483.822845 
	C689.284485,485.399139 689.442444,487.194305 688.686157,489.396118 
z"/>
<path fill="#f0f4efff" opacity="1.000000" stroke="none" 
	d="
M485.493835,601.413208 
	C489.532501,598.337402 493.508423,595.931458 498.383820,595.768005 
	C500.563232,595.694946 503.146484,595.886353 503.560608,598.536987 
	C503.928406,600.890747 501.790802,601.852112 499.778961,602.452087 
	C492.121368,604.735535 486.420044,609.946106 481.382721,615.682129 
	C472.462189,625.839905 461.350006,632.299011 449.047852,637.450195 
	C441.515808,640.604004 434.509430,644.691956 425.852295,643.416504 
	C422.632874,642.942200 419.780731,641.809143 416.965179,640.397400 
	C415.592010,639.708862 414.296265,638.740356 414.699921,636.947266 
	C415.126190,635.054138 416.900360,635.220215 418.328461,634.984924 
	C418.978363,634.877747 419.655609,634.910522 420.319824,634.920471 
	C442.345001,635.251343 459.912292,625.489197 475.290344,610.709290 
	C478.520233,607.605103 481.897156,604.653809 485.493835,601.413208 
z"/>
<path fill="#f0f4efff" opacity="1.000000" stroke="none" 
	d="
M582.846741,632.116089 
	C589.943726,634.553711 597.145325,635.317871 604.194580,638.614014 
	C601.133057,643.510254 596.349915,645.163757 591.618103,647.035645 
	C590.308411,646.114441 591.813477,643.586731 589.286072,643.580139 
	C588.208191,643.577271 587.170166,642.597839 586.050171,642.345764 
	C567.933044,638.269226 553.945923,627.517029 541.180115,614.742371 
	C536.432983,609.992004 531.128113,606.005127 524.789246,603.569458 
	C523.549133,603.092896 522.006104,602.817139 522.208984,601.066833 
	C522.426147,599.194153 523.773499,598.194397 525.563965,597.862976 
	C528.318054,597.353271 530.824097,598.261658 533.288025,599.335266 
	C538.742737,601.711731 543.079529,605.634705 547.252319,609.702454 
	C557.432800,619.626831 569.443481,626.598450 582.846741,632.116089 
z"/>
<path fill="#f0f4efff" opacity="1.000000" stroke="none" 
	d="
M477.886414,642.995239 
	C468.111237,648.817810 457.905823,651.980652 446.870605,652.169373 
	C443.921143,652.219788 440.750610,652.089417 440.453735,648.098450 
	C441.597321,646.585144 443.039032,646.713989 444.305481,646.553345 
	C461.822632,644.330505 475.406494,634.777100 487.867218,623.171936 
	C491.546814,619.744934 495.637665,617.721802 501.955292,618.220032 
	C497.773712,630.691895 487.443634,636.245178 477.886414,642.995239 
z"/>
<path fill="#f0f4efff" opacity="1.000000" stroke="none" 
	d="
M581.494751,647.039246 
	C585.638916,649.286621 583.088501,650.506287 581.051575,651.235107 
	C575.172791,653.338684 569.088379,652.789978 563.363647,651.001648 
	C548.660706,646.408691 536.938171,637.153809 526.675415,625.983398 
	C524.920959,624.073730 522.179565,620.958252 524.681030,618.615906 
	C526.982056,616.461243 530.108582,618.977661 532.167053,620.756104 
	C541.386414,628.721497 550.571045,636.686462 562.009766,641.435120 
	C568.169739,643.992249 574.371216,646.394958 581.494751,647.039246 
z"/>
</svg>