<?xml version="1.0" encoding="UTF-8"?>
<!DOCTYPE svg PUBLIC "-//W3C//DTD SVG 1.1//EN" "http://www.w3.org/Graphics/SVG/1.1/DTD/svg11.dtd">
<svg xmlns="http://www.w3.org/2000/svg" version="1.1" width="512px" height="512px" style="shape-rendering:geometricPrecision; text-rendering:geometricPrecision; image-rendering:optimizeQuality; fill-rule:evenodd; clip-rule:evenodd" xmlns:xlink="http://www.w3.org/1999/xlink">
<g><path style="opacity:0.96" fill="#ee4037" d="M -0.5,249.5 C -0.5,247.167 -0.5,244.833 -0.5,242.5C 0.626561,241.878 1.62656,241.045 2.5,240C 11.5091,238.332 20.5091,236.666 29.5,235C 33.4611,227.578 37.2944,220.078 41,212.5C 45,208.5 49,208.5 53,212.5C 56.7056,220.078 60.5389,227.578 64.5,235C 73.4726,236.773 82.4726,238.44 91.5,240C 94.886,243.373 95.386,247.206 93,251.5C 87.0315,256.467 81.3648,261.801 76,267.5C 76.236,276.423 77.4026,285.256 79.5,294C 79.0518,298.281 76.7185,300.781 72.5,301.5C 63.864,297.517 55.1973,293.517 46.5,289.5C 38.2884,293.773 29.9551,297.773 21.5,301.5C 17.27,300.77 14.9367,298.27 14.5,294C 16.3817,285.218 17.5484,276.385 18,267.5C 11.3027,261.968 5.13602,255.968 -0.5,249.5 Z"/></g>
<g><path style="opacity:0.961" fill="#ee4037" d="M 149.5,209.5 C 152.374,209.623 154.874,210.623 157,212.5C 160.706,220.078 164.539,227.578 168.5,235C 177.5,236.667 186.5,238.333 195.5,240C 199.424,242.772 200.258,246.272 198,250.5C 192.302,256.532 186.302,262.199 180,267.5C 180.668,276.352 181.835,285.185 183.5,294C 183.167,298.005 181.001,300.505 177,301.5C 168.283,297.891 159.783,293.891 151.5,289.5C 144.226,292.47 137.226,295.97 130.5,300C 124.742,302.417 120.742,300.75 118.5,295C 120.059,286.315 121.725,277.648 123.5,269C 117,262.5 110.5,256 104,249.5C 102.817,245.726 103.651,242.559 106.5,240C 115.939,238.581 125.273,236.748 134.5,234.5C 138.273,227.288 141.773,219.955 145,212.5C 146.409,211.219 147.909,210.219 149.5,209.5 Z"/></g>
<g><path style="opacity:0.96" fill="#ee4037" d="M 254.5,209.5 C 257.559,209.797 260.059,211.13 262,213.5C 265.5,220.5 269,227.5 272.5,234.5C 280.318,236.691 288.318,238.191 296.5,239C 303.036,240.572 304.869,244.405 302,250.5C 296,256.5 290,262.5 284,268.5C 285.021,276.623 286.188,284.789 287.5,293C 287.993,297.843 285.827,300.676 281,301.5C 272.283,297.891 263.783,293.891 255.5,289.5C 247.87,293.315 240.203,297.149 232.5,301C 226.418,301.793 223.418,299.126 223.5,293C 224.812,284.789 225.979,276.623 227,268.5C 220.301,262.136 213.968,255.469 208,248.5C 206.843,244.654 208.009,241.821 211.5,240C 220.607,238.487 229.607,236.654 238.5,234.5C 242.167,227.167 245.833,219.833 249.5,212.5C 251.145,211.304 252.811,210.304 254.5,209.5 Z"/></g>
<g><path style="opacity:0.962" fill="#ee4037" d="M 358.5,209.5 C 360.827,209.665 362.993,210.331 365,211.5C 368.833,219.167 372.667,226.833 376.5,234.5C 385.702,236.746 395.036,238.579 404.5,240C 407.349,242.559 408.183,245.726 407,249.5C 400.5,256 394,262.5 387.5,269C 389.275,277.648 390.941,286.315 392.5,295C 391.569,298.929 389.069,301.095 385,301.5C 376.586,297.377 368.086,293.377 359.5,289.5C 351.87,293.315 344.203,297.149 336.5,301C 331.165,301.665 328.165,299.332 327.5,294C 329.165,285.185 330.332,276.352 331,267.5C 323.04,261.545 316.54,254.379 311.5,246C 312.097,243.463 313.43,241.463 315.5,240C 324.5,238.333 333.5,236.667 342.5,235C 346.461,227.578 350.294,220.078 354,212.5C 355.409,211.219 356.909,210.219 358.5,209.5 Z"/></g>
<g><path style="opacity:0.96" fill="#ee4037" d="M 511.5,242.5 C 511.5,244.833 511.5,247.167 511.5,249.5C 505.864,255.968 499.697,261.968 493,267.5C 493.452,276.385 494.618,285.218 496.5,294C 494.926,300.787 490.926,302.787 484.5,300C 477.886,296.109 471.052,292.609 464,289.5C 455.525,293.656 447.025,297.656 438.5,301.5C 434.282,300.781 431.948,298.281 431.5,294C 433.597,285.256 434.764,276.423 435,267.5C 429.635,261.801 423.969,256.467 418,251.5C 415.614,247.206 416.114,243.373 419.5,240C 428.527,238.44 437.527,236.773 446.5,235C 450.461,227.578 454.294,220.078 458,212.5C 462,208.5 466,208.5 470,212.5C 473.706,220.078 477.539,227.578 481.5,235C 489.106,236.611 496.773,237.944 504.5,239C 507.404,239.133 509.738,240.3 511.5,242.5 Z"/></g>
</svg>
