<?xml version="1.0" encoding="UTF-8"?>
<!DOCTYPE svg PUBLIC "-//W3C//DTD SVG 1.1//EN" "http://www.w3.org/Graphics/SVG/1.1/DTD/svg11.dtd">
<svg xmlns="http://www.w3.org/2000/svg" version="1.1" width="576px" height="554px" style="shape-rendering:geometricPrecision; text-rendering:geometricPrecision; image-rendering:optimizeQuality; fill-rule:evenodd; clip-rule:evenodd" xmlns:xlink="http://www.w3.org/1999/xlink">
<g><path style="opacity:1" fill="#0c181d" d="M 354.5,14.5 C 355.494,23.6517 355.827,32.985 355.5,42.5C 354.315,55.7277 349.982,67.7277 342.5,78.5C 340.823,77.5876 338.989,76.9209 337,76.5C 335.342,76.6752 334.009,77.3418 333,78.5C 330.544,76.6787 327.711,76.012 324.5,76.5C 324.5,75.1667 324.5,73.8333 324.5,72.5C 325.978,72.762 327.311,72.4287 328.5,71.5C 332.167,67.8333 335.833,64.1667 339.5,60.5C 340.48,57.9135 340.813,55.2469 340.5,52.5C 336.263,52.3102 332.263,51.9768 328.5,51.5C 331.146,49.8681 332.479,47.5348 332.5,44.5C 334.5,44.5 336.5,44.5 338.5,44.5C 338.701,41.2719 338.367,38.1052 337.5,35C 339.429,33.3058 340.429,31.1391 340.5,28.5C 342.467,28.7394 344.301,28.4061 346,27.5C 346.617,26.5509 346.451,25.7175 345.5,25C 347.221,23.0562 348.554,20.8895 349.5,18.5C 351.142,17.197 352.809,15.8637 354.5,14.5 Z"/></g>
<g><path style="opacity:0.263" fill="#919c9e" d="M 355.5,42.5 C 355.827,32.985 355.494,23.6517 354.5,14.5C 354.783,13.7109 355.283,13.0442 356,12.5C 356.825,22.6753 356.658,32.6753 355.5,42.5 Z"/></g>
<g><path style="opacity:1" fill="#0f1b1e" d="M 39.5,72.5 C 37.8356,73.9488 37.0023,75.9488 37,78.5C 35.2458,76.75 33.0792,76.0833 30.5,76.5C 30.8113,90.389 30.1446,102.056 28.5,111.5C 29.2634,112.719 30.2634,113.719 31.5,114.5C 28.8333,116.5 28.8333,118.5 31.5,120.5C 27.8717,125.899 27.5383,131.566 30.5,137.5C 29.5309,140.452 29.1976,143.285 29.5,146C 31.0801,154.801 31.7467,163.468 31.5,172C 27.8484,172.499 24.1817,172.665 20.5,172.5C 20.5,175.167 20.5,177.833 20.5,180.5C 21.8333,180.5 23.1667,180.5 24.5,180.5C 24.5,183.167 24.5,185.833 24.5,188.5C 23.1667,188.5 21.8333,188.5 20.5,188.5C 20.5,191.167 20.5,193.833 20.5,196.5C 27.1442,196.477 30.4775,199.811 30.5,206.5C 30.4101,208.964 29.7435,211.13 28.5,213C 29.0026,217.835 29.0026,223.001 28.5,228.5C 27.1667,228.5 25.8333,228.5 24.5,228.5C 24.9923,235.635 26.6589,242.469 29.5,249C 28.0884,260.752 27.0884,272.586 26.5,284.5C 20.8815,286.83 21.2148,288.497 27.5,289.5C 29.1667,287.833 30.1667,288.167 30.5,290.5C 30.0814,291.672 29.4147,292.672 28.5,293.5C 30.1733,295.523 30.8399,297.856 30.5,300.5C 34.9708,301.44 36.3041,304.107 34.5,308.5C 33.7189,307.271 33.2189,305.938 33,304.5C 32.6667,305.5 32.3333,306.5 32,307.5C 31.2801,305.745 30.1134,304.911 28.5,305C 29.6493,306.604 29.6493,308.27 28.5,310C 28.9054,310.945 29.572,311.612 30.5,312C 29.1414,313.204 28.1414,314.704 27.5,316.5C 27.0651,320.612 26.0651,324.445 24.5,328C 25.8586,329.204 26.8586,330.704 27.5,332.5C 27.9356,338.352 28.9356,344.019 30.5,349.5C 30.1667,350.167 29.8333,350.833 29.5,351.5C 31.8254,354.64 31.9921,357.974 30,361.5C 29.6667,359.833 29.3333,358.167 29,356.5C 27.7298,362.683 29.0631,368.017 33,372.5C 33.6259,370.009 34.4593,370.009 35.5,372.5C 36.3857,371.675 36.719,370.675 36.5,369.5C 37.224,371.218 37.8906,373.052 38.5,375C 45.8258,375.5 53.1591,375.666 60.5,375.5C 53.3448,376.329 46.0115,376.829 38.5,377C 38.5,378.333 38.5,379.667 38.5,381C 39.9423,381.377 40.9423,382.21 41.5,383.5C 40.1667,383.5 38.8333,383.5 37.5,383.5C 38.0916,386.127 38.4249,388.794 38.5,391.5C 47.8333,391.5 57.1667,391.5 66.5,391.5C 56.6586,392.167 46.6586,392.833 36.5,393.5C 37.0253,394.192 37.6919,394.692 38.5,395C 37.1667,396 37.1667,397 38.5,398C 35.9485,399.516 36.2819,400.349 39.5,400.5C 37.727,403.488 37.0604,406.821 37.5,410.5C 60.0062,410.169 82.3396,410.503 104.5,411.5C 93.8281,411.333 83.1615,411.5 72.5,412C 70.3904,412.554 68.3904,413.388 66.5,414.5C 65.2141,414.148 64.3808,413.482 64,412.5C 63.0497,413.022 62.2164,413.689 61.5,414.5C 58.7631,412.898 55.7631,412.064 52.5,412C 47.8333,411.333 43.1667,411.333 38.5,412C 36.327,414.698 35.9937,417.531 37.5,420.5C 37.5,423.5 37.5,426.5 37.5,429.5C 47.8333,429.5 58.1667,429.5 68.5,429.5C 63.3441,430.166 58.0108,430.499 52.5,430.5C 46.7541,430.474 41.2541,429.807 36,428.5C 35.3333,431.167 35.3333,433.833 36,436.5C 36.9947,437.066 37.828,437.733 38.5,438.5C 37.01,441.979 37.3433,445.312 39.5,448.5C 37.1104,448.685 36.1104,450.018 36.5,452.5C 36.3227,454.968 37.3227,456.635 39.5,457.5C 38.5233,460.287 38.19,463.287 38.5,466.5C 37.5657,467.772 36.899,469.272 36.5,471C 38.8452,472.532 39.8452,474.365 39.5,476.5C 38.2134,480.268 38.2134,483.935 39.5,487.5C 44.2991,488.592 49.2991,489.259 54.5,489.5C 71.8195,488.587 89.1528,488.254 106.5,488.5C 107.951,494.199 107.784,499.866 106,505.5C 96.8038,515.679 85.6372,522.679 72.5,526.5C 70.5082,526.672 68.8415,526.005 67.5,524.5C 66.4937,524.938 66.4937,525.604 67.5,526.5C 65.3449,527.001 63.6782,528.001 62.5,529.5C 34.2561,534.132 14.4228,523.466 3,497.5C 2.04673,494.568 1.54673,491.568 1.5,488.5C 1.81681,350.491 1.48347,212.491 0.5,74.5C 2.27582,54.4478 12.6092,40.9478 31.5,34C 47.0474,29.4882 62.7141,30.1549 78.5,36C 86.6533,39.5738 94.3199,43.9071 101.5,49C 108.385,55.5301 109.385,62.8635 104.5,71C 82.8543,72.2996 61.1877,72.7996 39.5,72.5 Z"/></g>
<g><path style="opacity:1" fill="#0e161a" d="M 393.5,-0.5 C 394.167,-0.5 394.833,-0.5 395.5,-0.5C 404.737,4.45944 413.737,9.95944 422.5,16C 425.978,19.2992 428.978,22.9659 431.5,27C 441.75,26.9703 450.417,30.4703 457.5,37.5C 459.948,41.7862 462.614,45.9528 465.5,50C 465.167,50.3333 464.833,50.6667 464.5,51C 465.316,54.2694 466.316,57.436 467.5,60.5C 465.167,60.5 462.833,60.5 460.5,60.5C 460.66,62.1992 460.494,63.8659 460,65.5C 459.252,63.6675 458.252,62.0009 457,60.5C 456.508,61.549 456.674,62.549 457.5,63.5C 456.149,66.095 454.983,68.7617 454,71.5C 453.51,70.2068 453.343,68.8734 453.5,67.5C 450.826,48.9949 440.493,42.3283 422.5,47.5C 421.264,45.9572 419.598,44.9572 417.5,44.5C 416.5,45.8333 415.5,45.8333 414.5,44.5C 413.808,45.0253 413.308,45.6919 413,46.5C 406.012,45.5138 405.846,43.3471 412.5,40C 412.146,38.3745 412.146,36.5412 412.5,34.5C 405.297,24.7126 395.963,17.5459 384.5,13C 387.138,8.21331 390.138,3.71331 393.5,-0.5 Z"/></g>
<g><path style="opacity:1" fill="#0f1c1e" d="M 349.5,18.5 C 348.554,20.8895 347.221,23.0562 345.5,25C 346.451,25.7175 346.617,26.5509 346,27.5C 344.301,28.4061 342.467,28.7394 340.5,28.5C 340.429,31.1391 339.429,33.3058 337.5,35C 338.367,38.1052 338.701,41.2719 338.5,44.5C 336.5,44.5 334.5,44.5 332.5,44.5C 332.479,47.5348 331.146,49.8681 328.5,51.5C 332.263,51.9768 336.263,52.3102 340.5,52.5C 340.813,55.2469 340.48,57.9135 339.5,60.5C 335.833,64.1667 332.167,67.8333 328.5,71.5C 327.311,72.4287 325.978,72.762 324.5,72.5C 324.5,73.8333 324.5,75.1667 324.5,76.5C 327.711,76.012 330.544,76.6787 333,78.5C 334.009,77.3418 335.342,76.6752 337,76.5C 338.989,76.9209 340.823,77.5876 342.5,78.5C 328.599,104.646 306.599,118.479 276.5,120C 249.043,123.822 223.043,119.488 198.5,107C 183.125,95.7969 169.125,82.9636 156.5,68.5C 171.059,46.8827 191.392,35.0494 217.5,33C 249.848,32.7244 282.182,33.0577 314.5,34C 326.935,30.4465 338.602,25.2798 349.5,18.5 Z"/></g>
<g><path style="opacity:1" fill="#0e1919" d="M 96.5,81.5 C 99.5184,81.3354 102.518,81.502 105.5,82C 106.444,84.7191 106.777,87.5525 106.5,90.5C 84.1824,91.4093 61.849,91.7427 39.5,91.5C 40.209,90.596 41.209,90.2627 42.5,90.5C 42.5,88.5 42.5,86.5 42.5,84.5C 45.6852,84.9804 48.5185,84.3137 51,82.5C 57.656,84.0191 64.4893,85.3524 71.5,86.5C 73.1875,85.9042 74.8542,85.0709 76.5,84C 72.8333,83.6667 69.1667,83.3333 65.5,83C 76.0081,82.8303 86.3415,82.3303 96.5,81.5 Z"/></g>
<g><path style="opacity:1" fill="#111c1e" d="M 388.5,113.5 C 388.5,140.833 388.5,168.167 388.5,195.5C 386.833,195.5 385.167,195.5 383.5,195.5C 378.173,193.841 373.507,191.174 369.5,187.5C 372.66,187.662 375.16,188.996 377,191.5C 378.734,190.751 380.567,190.251 382.5,190C 381.833,189.667 381.167,189.333 380.5,189C 381.793,188.51 383.127,188.343 384.5,188.5C 384.215,184.975 384.881,181.642 386.5,178.5C 382.506,169.242 381.506,159.575 383.5,149.5C 382.833,148.167 382.167,148.167 381.5,149.5C 380.985,151.225 380.318,152.892 379.5,154.5C 378.571,153.311 378.238,151.978 378.5,150.5C 376.5,150.5 374.5,150.5 372.5,150.5C 372.5,152.5 372.5,154.5 372.5,156.5C 366.369,155.908 360.536,156.575 355,158.5C 354.667,157.833 354.333,157.167 354,156.5C 353.64,158.608 352.973,160.608 352,162.5C 350.908,160.069 349.741,160.069 348.5,162.5C 347.901,157.979 346.235,153.979 343.5,150.5C 342.253,144.374 341.587,138.041 341.5,131.5C 342.332,124.591 342.332,117.757 341.5,111C 350.286,99.2644 358.453,87.0977 366,74.5C 377.993,84.9731 385.493,97.9731 388.5,113.5 Z"/></g>
<g><path style="opacity:1" fill="#10191b" d="M 517.5,27.5 C 535.342,27.5027 548.176,35.5027 556,51.5C 560.29,64.0086 558.624,75.6753 551,86.5C 547.85,90.6175 544.35,94.4508 540.5,98C 536.671,100.609 532.504,102.443 528,103.5C 525.739,121.107 524.073,138.773 523,156.5C 515.85,162.106 511.183,169.439 509,178.5C 503.43,172.593 497.597,167.093 491.5,162C 496.035,155.965 501.368,150.798 507.5,146.5C 507.046,132.337 507.713,118.17 509.5,104C 506.828,100.677 503.494,98.0105 499.5,96C 485.173,83.6798 481.007,68.5132 487,50.5C 493.358,37.5917 503.524,29.925 517.5,27.5 Z M 520.5,45.5 C 532.16,47.1603 538.827,53.827 540.5,65.5C 537.891,81.4602 528.891,87.2935 513.5,83C 502.801,75.8988 499.967,66.3988 505,54.5C 509.015,49.2509 514.181,46.2509 520.5,45.5 Z"/></g>
<g><path style="opacity:1" fill="#111b1e" d="M 412.5,34.5 C 412.146,36.5412 412.146,38.3745 412.5,40C 405.846,43.3471 406.012,45.5138 413,46.5C 413.308,45.6919 413.808,45.0253 414.5,44.5C 415.5,45.8333 416.5,45.8333 417.5,44.5C 419.598,44.9572 421.264,45.9572 422.5,47.5C 409.141,59.6169 409.474,71.4503 423.5,83C 439.277,88.6136 449.277,83.4469 453.5,67.5C 453.343,68.8734 453.51,70.2068 454,71.5C 454.983,68.7617 456.149,66.095 457.5,63.5C 456.674,62.549 456.508,61.549 457,60.5C 458.252,62.0009 459.252,63.6675 460,65.5C 460.494,63.8659 460.66,62.1992 460.5,60.5C 462.833,60.5 465.167,60.5 467.5,60.5C 466.316,57.436 465.316,54.2694 464.5,51C 464.833,50.6667 465.167,50.3333 465.5,50C 462.614,45.9528 459.948,41.7862 457.5,37.5C 469.361,47.5843 473.194,60.251 469,75.5C 465.901,83.1017 461.401,89.7684 455.5,95.5C 451.829,97.8475 448.496,100.514 445.5,103.5C 448.554,118.042 450.72,132.709 452,147.5C 453.045,148.373 453.878,149.373 454.5,150.5C 453.12,151.706 451.953,151.373 451,149.5C 450.814,147.1 450.314,144.766 449.5,142.5C 448.224,148.126 445.557,152.959 441.5,157C 442.167,157.333 442.833,157.667 443.5,158C 442.244,158.417 441.577,159.25 441.5,160.5C 439.292,159.106 437.792,157.106 437,154.5C 433.648,137.761 429.982,121.094 426,104.5C 401.699,94.9043 392.366,77.2377 398,51.5C 399.934,47.2406 402.268,43.2406 405,39.5C 407.128,37.1923 409.628,35.5256 412.5,34.5 Z M 453.5,67.5 C 449.277,83.4469 439.277,88.6136 423.5,83C 409.474,71.4503 409.141,59.6169 422.5,47.5C 440.493,42.3283 450.826,48.9949 453.5,67.5 Z"/></g>
<g><path style="opacity:1" fill="#0f1b1d" d="M 166.5,100.5 C 166.196,101.15 165.863,101.817 165.5,102.5C 165.846,103.696 166.346,103.696 167,102.5C 167.27,105.362 168.104,108.028 169.5,110.5C 172.632,111.756 175.632,113.256 178.5,115C 173.436,115.975 172.602,118.142 176,121.5C 176.5,127.825 176.666,134.158 176.5,140.5C 175.167,140.5 173.833,140.5 172.5,140.5C 172.554,143.951 170.887,146.117 167.5,147C 167.833,147.333 168.167,147.667 168.5,148C 167.207,148.49 165.873,148.657 164.5,148.5C 164.5,151.167 164.5,153.833 164.5,156.5C 160.71,156.008 160.044,156.841 162.5,159C 160.655,160.128 158.655,160.628 156.5,160.5C 156.33,161.822 156.663,162.989 157.5,164C 155.193,164.354 154.859,165.354 156.5,167C 153.24,171.718 151.906,176.718 152.5,182C 151.207,182.49 149.873,182.657 148.5,182.5C 148.785,180.712 148.452,179.045 147.5,177.5C 145.502,179.334 143.168,180.334 140.5,180.5C 140.656,184.582 140.156,188.582 139,192.5C 138.5,165.502 138.333,138.502 138.5,111.5C 138.174,100.773 141.507,91.4396 148.5,83.5C 155.151,88.4845 161.151,94.1512 166.5,100.5 Z"/></g>
<g><path style="opacity:1" fill="#191d20" d="M 36.5,111.5 C 35.4448,108.927 35.2782,106.261 36,103.5C 36.7096,102.027 37.8762,101.36 39.5,101.5C 61.0938,100.345 82.7605,100.179 104.5,101C 107.54,103.629 108.206,106.796 106.5,110.5C 83.1543,110.291 59.821,110.625 36.5,111.5 Z"/></g>
<g><path style="opacity:1" fill="#1c282d" d="M 166.5,100.5 C 172.959,105.145 179.126,110.145 185,115.5C 185.589,129.571 184.922,143.571 183,157.5C 178.861,168.312 172.361,177.478 163.5,185C 155.502,190.668 147.169,195.834 138.5,200.5C 137.21,171.356 137.21,141.689 138.5,111.5C 138.333,138.502 138.5,165.502 139,192.5C 140.156,188.582 140.656,184.582 140.5,180.5C 143.168,180.334 145.502,179.334 147.5,177.5C 148.452,179.045 148.785,180.712 148.5,182.5C 149.873,182.657 151.207,182.49 152.5,182C 151.906,176.718 153.24,171.718 156.5,167C 154.859,165.354 155.193,164.354 157.5,164C 156.663,162.989 156.33,161.822 156.5,160.5C 158.655,160.628 160.655,160.128 162.5,159C 160.044,156.841 160.71,156.008 164.5,156.5C 164.5,153.833 164.5,151.167 164.5,148.5C 165.873,148.657 167.207,148.49 168.5,148C 168.167,147.667 167.833,147.333 167.5,147C 170.887,146.117 172.554,143.951 172.5,140.5C 173.833,140.5 175.167,140.5 176.5,140.5C 176.666,134.158 176.5,127.825 176,121.5C 172.602,118.142 173.436,115.975 178.5,115C 175.632,113.256 172.632,111.756 169.5,110.5C 168.104,108.028 167.27,105.362 167,102.5C 166.346,103.696 165.846,103.696 165.5,102.5C 165.863,101.817 166.196,101.15 166.5,100.5 Z"/></g>
<g><path style="opacity:1" fill="#162022" d="M 36.5,118.5 C 37.404,119.209 37.7373,120.209 37.5,121.5C 59.8199,120.424 82.1533,120.257 104.5,121C 105.416,121.374 106.25,121.874 107,122.5C 107.497,125.146 107.664,127.813 107.5,130.5C 84.1928,131.459 60.8594,131.793 37.5,131.5C 36.3101,129.447 35.6434,127.113 35.5,124.5C 35.5046,122.304 35.838,120.304 36.5,118.5 Z"/></g>
<g><path style="opacity:1" fill="#050f12" d="M 106.5,141.5 C 107.811,143.56 107.811,145.726 106.5,148C 103.518,148.498 100.518,148.665 97.5,148.5C 77.1667,148.5 56.8333,148.5 36.5,148.5C 37.209,147.596 38.209,147.263 39.5,147.5C 39.5,145.5 39.5,143.5 39.5,141.5C 61.8333,141.5 84.1667,141.5 106.5,141.5 Z"/></g>
<g><path style="opacity:1" fill="#475253" d="M 343.5,150.5 C 346.235,153.979 347.901,157.979 348.5,162.5C 345.763,159.017 344.097,155.017 343.5,150.5 Z"/></g>
<g><path style="opacity:0.996" fill="#0f1a20" d="M 369.5,187.5 C 360.626,180.635 353.626,172.302 348.5,162.5C 349.741,160.069 350.908,160.069 352,162.5C 352.973,160.608 353.64,158.608 354,156.5C 354.333,157.167 354.667,157.833 355,158.5C 360.536,156.575 366.369,155.908 372.5,156.5C 372.5,154.5 372.5,152.5 372.5,150.5C 374.5,150.5 376.5,150.5 378.5,150.5C 378.238,151.978 378.571,153.311 379.5,154.5C 380.318,152.892 380.985,151.225 381.5,149.5C 382.167,148.167 382.833,148.167 383.5,149.5C 381.506,159.575 382.506,169.242 386.5,178.5C 384.881,181.642 384.215,184.975 384.5,188.5C 383.127,188.343 381.793,188.51 380.5,189C 381.167,189.333 381.833,189.667 382.5,190C 380.567,190.251 378.734,190.751 377,191.5C 375.16,188.996 372.66,187.662 369.5,187.5 Z"/></g>
<g><path style="opacity:0.48" fill="#687476" d="M 36.5,148.5 C 56.8333,148.5 77.1667,148.5 97.5,148.5C 77.6736,149.497 57.6736,149.83 37.5,149.5C 37.5,152.833 37.5,156.167 37.5,159.5C 57.8333,159.5 78.1667,159.5 98.5,159.5C 78.0067,160.497 57.3401,160.831 36.5,160.5C 36.5,156.5 36.5,152.5 36.5,148.5 Z"/></g>
<g><path style="opacity:1" fill="#0c1517" d="M 454.5,150.5 C 464.064,158.223 474.064,165.39 484.5,172C 492.421,177.919 498.921,185.086 504,193.5C 505.958,198.329 507.124,203.329 507.5,208.5C 507.666,215.175 507.5,221.842 507,228.5C 506.827,224.459 506.327,220.459 505.5,216.5C 504.376,221.721 503.542,221.721 503,216.5C 502.51,217.793 502.343,219.127 502.5,220.5C 498.42,220.897 494.754,219.897 491.5,217.5C 490.396,218.631 490.729,219.465 492.5,220C 489.333,220.252 486.333,220.418 483.5,220.5C 482.537,220.03 482.537,219.363 483.5,218.5C 494.548,214.272 496.215,207.605 488.5,198.5C 487.685,197.163 486.518,196.163 485,195.5C 485.704,189.11 482.871,186.11 476.5,186.5C 476.66,184.801 476.494,183.134 476,181.5C 474.204,182.767 472.371,182.767 470.5,181.5C 469.914,181.709 469.414,182.043 469,182.5C 468.505,184.473 468.338,186.473 468.5,188.5C 464.098,188.228 459.765,188.561 455.5,189.5C 454.962,191.764 455.296,194.097 456.5,196.5C 456.043,197.298 455.376,197.631 454.5,197.5C 450.939,186.644 447.439,175.644 444,164.5C 443.338,163.016 442.504,161.683 441.5,160.5C 441.577,159.25 442.244,158.417 443.5,158C 442.833,157.667 442.167,157.333 441.5,157C 445.557,152.959 448.224,148.126 449.5,142.5C 450.314,144.766 450.814,147.1 451,149.5C 451.953,151.373 453.12,151.706 454.5,150.5 Z"/></g>
<g><path style="opacity:1" fill="#061013" d="M 37.5,180.5 C 37.8333,180.5 38.1667,180.5 38.5,180.5C 53.6995,181.189 69.0329,182.189 84.5,183.5C 86.4233,184.308 88.4233,184.808 90.5,185C 86.8035,187.414 87.3035,187.914 92,186.5C 92.7504,187.126 93.5838,187.626 94.5,188C 77.5033,188.5 60.5033,188.667 43.5,188.5C 42.8333,188.5 42.1667,188.5 41.5,188.5C 39.8333,188.5 38.1667,188.5 36.5,188.5C 36.33,187.178 36.6634,186.011 37.5,185C 37,184.5 36.5,184 36,183.5C 35.3333,178.833 35.3333,174.167 36,169.5C 36.1773,173.356 36.6773,177.023 37.5,180.5 Z"/></g>
<g><path style="opacity:1" fill="#374344" d="M 38.5,180.5 C 61.1691,180.333 83.8358,180.5 106.5,181C 107.435,183.381 107.768,185.881 107.5,188.5C 86.0076,189.716 64.6743,189.716 43.5,188.5C 60.5033,188.667 77.5033,188.5 94.5,188C 93.5838,187.626 92.7504,187.126 92,186.5C 87.3035,187.914 86.8035,187.414 90.5,185C 88.4233,184.808 86.4233,184.308 84.5,183.5C 69.0329,182.189 53.6995,181.189 38.5,180.5 Z"/></g>
<g><path style="opacity:0.3" fill="#8d999a" d="M 388.5,113.5 C 389.498,140.995 389.831,168.662 389.5,196.5C 387.265,196.795 385.265,196.461 383.5,195.5C 385.167,195.5 386.833,195.5 388.5,195.5C 388.5,168.167 388.5,140.833 388.5,113.5 Z"/></g>
<g><path style="opacity:0.008" fill="#b9ccd0" d="M 37.5,196.5 C 39.6977,196.409 40.0311,197.075 38.5,198.5C 37.6618,198.158 37.3284,197.492 37.5,196.5 Z"/></g>
<g><path style="opacity:0.99" fill="#0e191a" d="M 48.5,198.5 C 55.8333,198.5 63.1667,198.5 70.5,198.5C 82.3378,199.553 94.3378,199.553 106.5,198.5C 108.17,201.629 107.836,204.462 105.5,207C 88.1699,207.5 70.8365,207.667 53.5,207.5C 48.8215,207.666 44.1548,207.499 39.5,207C 40.5523,205.284 39.8856,204.284 37.5,204C 38.3757,202.415 39.7091,201.415 41.5,201C 40.1667,200.667 38.8333,200.333 37.5,200C 41.3563,199.823 45.023,199.323 48.5,198.5 Z"/></g>
<g><path style="opacity:0.608" fill="#666b6c" d="M 106.5,198.5 C 94.3378,199.553 82.3378,199.553 70.5,198.5C 82.5289,197.421 94.5289,197.421 106.5,198.5 Z"/></g>
<g><path style="opacity:1" fill="#eef5f5" d="M 488.5,198.5 C 496.215,207.605 494.548,214.272 483.5,218.5C 474.164,217.875 470.664,212.875 473,203.5C 476.687,197.627 481.854,195.96 488.5,198.5 Z"/></g>
<g><path style="opacity:1" fill="#131f24" d="M 39.5,72.5 C 38.4448,75.0728 38.2782,77.7395 39,80.5C 39.5613,81.0219 40.228,81.3552 41,81.5C 59.3059,81.067 77.8059,81.067 96.5,81.5C 86.3415,82.3303 76.0081,82.8303 65.5,83C 69.1667,83.3333 72.8333,83.6667 76.5,84C 74.8542,85.0709 73.1875,85.9042 71.5,86.5C 64.4893,85.3524 57.656,84.0191 51,82.5C 48.5185,84.3137 45.6852,84.9804 42.5,84.5C 42.5,86.5 42.5,88.5 42.5,90.5C 41.209,90.2627 40.209,90.596 39.5,91.5C 38.2353,92.5145 37.5687,94.0145 37.5,96C 37.6975,98.1206 38.3642,99.9539 39.5,101.5C 37.8762,101.36 36.7096,102.027 36,103.5C 35.2782,106.261 35.4448,108.927 36.5,111.5C 36.5,113.833 36.5,116.167 36.5,118.5C 35.838,120.304 35.5046,122.304 35.5,124.5C 35.6434,127.113 36.3101,129.447 37.5,131.5C 37.5,134.5 37.5,137.5 37.5,140.5C 60.6727,140.169 83.6727,140.502 106.5,141.5C 84.1667,141.5 61.8333,141.5 39.5,141.5C 39.5,143.5 39.5,145.5 39.5,147.5C 38.209,147.263 37.209,147.596 36.5,148.5C 36.5,152.5 36.5,156.5 36.5,160.5C 57.3401,160.831 78.0067,160.497 98.5,159.5C 106.525,157.912 109.191,160.912 106.5,168.5C 105.271,169.281 103.938,169.781 102.5,170C 94.3434,170.666 86.1767,171.166 78,171.5C 64.5101,170.734 51.0101,170.4 37.5,170.5C 37.5,173.833 37.5,177.167 37.5,180.5C 36.6773,177.023 36.1773,173.356 36,169.5C 35.3333,174.167 35.3333,178.833 36,183.5C 36.5,184 37,184.5 37.5,185C 36.6634,186.011 36.33,187.178 36.5,188.5C 38.1667,188.5 39.8333,188.5 41.5,188.5C 40.4324,189.434 39.099,189.768 37.5,189.5C 37.5,191.833 37.5,194.167 37.5,196.5C 37.3284,197.492 37.6618,198.158 38.5,198.5C 41.8333,198.5 45.1667,198.5 48.5,198.5C 45.023,199.323 41.3563,199.823 37.5,200C 38.8333,200.333 40.1667,200.667 41.5,201C 39.7091,201.415 38.3757,202.415 37.5,204C 39.8856,204.284 40.5523,205.284 39.5,207C 44.1548,207.499 48.8215,207.666 53.5,207.5C 48.3595,208.488 43.0262,208.821 37.5,208.5C 37.7399,211.579 37.4066,214.579 36.5,217.5C 59.8262,218.333 83.1595,218.833 106.5,219C 107.833,222 107.833,225 106.5,228C 83.5217,229.33 60.5217,229.83 37.5,229.5C 37.5,232.167 37.5,234.833 37.5,237.5C 36.596,238.209 36.2627,239.209 36.5,240.5C 40.449,240.693 40.449,241.193 36.5,242C 37.2797,243.073 37.113,244.24 36,245.5C 35.3333,250.5 35.3333,255.5 36,260.5C 36.2784,259.584 36.7784,258.918 37.5,258.5C 58.7596,257.933 80.4262,257.266 102.5,256.5C 106.371,256.702 108.037,258.702 107.5,262.5C 107.449,264.1 107.116,265.6 106.5,267C 88.6738,268.627 70.8405,268.794 53,267.5C 48.1234,267.871 43.2901,268.538 38.5,269.5C 37.2243,272.303 37.2243,274.97 38.5,277.5C 61.1602,278.181 83.8269,278.514 106.5,278.5C 106.5,280.833 106.5,283.167 106.5,285.5C 83.4903,285.167 60.4903,285.5 37.5,286.5C 38.0522,288.003 38.0522,289.669 37.5,291.5C 37.5,292.833 37.5,294.167 37.5,295.5C 50.5,295.5 63.5,295.5 76.5,295.5C 86.4176,294.526 96.4176,294.193 106.5,294.5C 107.851,298.025 107.184,301.191 104.5,304C 82.1692,304.5 59.8358,304.667 37.5,304.5C 37.5,307.5 37.5,310.5 37.5,313.5C 60.5047,313.57 83.5047,313.903 106.5,314.5C 107.291,317.417 107.291,320.25 106.5,323C 95.6681,323.532 84.8348,324.032 74,324.5C 62.1717,323.653 50.3384,323.486 38.5,324C 37.5495,327.057 37.2161,330.223 37.5,333.5C 38.5,333.5 39.5,333.5 40.5,333.5C 60.6707,334.167 81.004,334.833 101.5,335.5C 99.6801,338.532 97.3468,340.865 94.5,342.5C 75.173,343.311 56.173,344.645 37.5,346.5C 37.1634,350.011 37.1634,353.344 37.5,356.5C 34.5352,356.73 33.2019,358.397 33.5,361.5C 33.2649,364.048 34.2649,365.714 36.5,366.5C 36.5,367.5 36.5,368.5 36.5,369.5C 36.719,370.675 36.3857,371.675 35.5,372.5C 34.4593,370.009 33.6259,370.009 33,372.5C 29.0631,368.017 27.7298,362.683 29,356.5C 29.3333,358.167 29.6667,359.833 30,361.5C 31.9921,357.974 31.8254,354.64 29.5,351.5C 29.8333,350.833 30.1667,350.167 30.5,349.5C 28.9356,344.019 27.9356,338.352 27.5,332.5C 26.8586,330.704 25.8586,329.204 24.5,328C 26.0651,324.445 27.0651,320.612 27.5,316.5C 28.1414,314.704 29.1414,313.204 30.5,312C 29.572,311.612 28.9054,310.945 28.5,310C 29.6493,308.27 29.6493,306.604 28.5,305C 30.1134,304.911 31.2801,305.745 32,307.5C 32.3333,306.5 32.6667,305.5 33,304.5C 33.2189,305.938 33.7189,307.271 34.5,308.5C 36.3041,304.107 34.9708,301.44 30.5,300.5C 30.8399,297.856 30.1733,295.523 28.5,293.5C 29.4147,292.672 30.0814,291.672 30.5,290.5C 30.1667,288.167 29.1667,287.833 27.5,289.5C 21.2148,288.497 20.8815,286.83 26.5,284.5C 27.0884,272.586 28.0884,260.752 29.5,249C 26.6589,242.469 24.9923,235.635 24.5,228.5C 25.8333,228.5 27.1667,228.5 28.5,228.5C 29.0026,223.001 29.0026,217.835 28.5,213C 29.7435,211.13 30.4101,208.964 30.5,206.5C 30.4775,199.811 27.1442,196.477 20.5,196.5C 20.5,193.833 20.5,191.167 20.5,188.5C 21.8333,188.5 23.1667,188.5 24.5,188.5C 24.5,185.833 24.5,183.167 24.5,180.5C 23.1667,180.5 21.8333,180.5 20.5,180.5C 20.5,177.833 20.5,175.167 20.5,172.5C 24.1817,172.665 27.8484,172.499 31.5,172C 31.7467,163.468 31.0801,154.801 29.5,146C 29.1976,143.285 29.5309,140.452 30.5,137.5C 27.5383,131.566 27.8717,125.899 31.5,120.5C 28.8333,118.5 28.8333,116.5 31.5,114.5C 30.2634,113.719 29.2634,112.719 28.5,111.5C 30.1446,102.056 30.8113,90.389 30.5,76.5C 33.0792,76.0833 35.2458,76.75 37,78.5C 37.0023,75.9488 37.8356,73.9488 39.5,72.5 Z"/></g>
<g><path style="opacity:1" fill="#0e191c" d="M 488.5,198.5 C 481.854,195.96 476.687,197.627 473,203.5C 470.664,212.875 474.164,217.875 483.5,218.5C 482.537,219.363 482.537,220.03 483.5,220.5C 486.333,220.418 489.333,220.252 492.5,220C 490.729,219.465 490.396,218.631 491.5,217.5C 494.754,219.897 498.42,220.897 502.5,220.5C 502.343,219.127 502.51,217.793 503,216.5C 503.542,221.721 504.376,221.721 505.5,216.5C 506.327,220.459 506.827,224.459 507,228.5C 507.5,221.842 507.666,215.175 507.5,208.5C 511.584,234.596 515.084,260.929 518,287.5C 525.318,334.073 531.984,380.74 538,427.5C 539.373,435.362 540.873,443.196 542.5,451C 542.361,452.301 541.695,453.134 540.5,453.5C 538.968,454.37 537.468,454.036 536,452.5C 535.29,453.973 534.124,454.64 532.5,454.5C 531.094,454.027 530.427,453.027 530.5,451.5C 530.975,447.584 529.975,444.251 527.5,441.5C 507.32,379.135 488.82,316.135 472,252.5C 466.459,234.045 460.626,215.712 454.5,197.5C 455.376,197.631 456.043,197.298 456.5,196.5C 455.296,194.097 454.962,191.764 455.5,189.5C 459.765,188.561 464.098,188.228 468.5,188.5C 468.338,186.473 468.505,184.473 469,182.5C 469.414,182.043 469.914,181.709 470.5,181.5C 472.371,182.767 474.204,182.767 476,181.5C 476.494,183.134 476.66,184.801 476.5,186.5C 482.871,186.11 485.704,189.11 485,195.5C 486.518,196.163 487.685,197.163 488.5,198.5 Z"/></g>
<g><path style="opacity:0.118" fill="#949f9b" d="M 357.5,222.5 C 354.918,222.025 352.918,222.692 351.5,224.5C 349.767,223.992 349.434,223.159 350.5,222C 353.039,221.204 355.372,221.371 357.5,222.5 Z"/></g>
<g><path style="opacity:0.494" fill="#717b81" d="M 170.5,223.5 C 173.355,222.197 176.355,222.197 179.5,223.5C 179.376,224.107 179.043,224.44 178.5,224.5C 176.052,223.527 173.385,223.194 170.5,223.5 Z"/></g>
<g><path style="opacity:1" fill="#101c1e" d="M 357.5,222.5 C 376.348,228.539 382.015,240.872 374.5,259.5C 363.374,277.152 347.207,285.819 326,285.5C 308.105,285.797 292.272,280.297 278.5,269C 273.836,263.503 268.836,258.336 263.5,253.5C 257.317,260.517 250.65,267.017 243.5,273C 224.329,285.786 203.663,288.786 181.5,282C 167.882,276.717 158.716,267.217 154,253.5C 151.59,240.693 155.757,230.86 166.5,224C 167.793,223.51 169.127,223.343 170.5,223.5C 173.385,223.194 176.052,223.527 178.5,224.5C 171.594,231.384 168.761,239.717 170,249.5C 177.272,257.114 185.772,258.614 195.5,254C 197.5,253 199.5,252 201.5,251C 208.538,244.293 215.872,237.96 223.5,232C 237.798,224.302 251.798,224.802 265.5,233.5C 280.22,224.155 294.886,224.322 309.5,234C 316.624,241.797 324.624,248.464 333.5,254C 340.887,257.123 348.22,257.123 355.5,254C 359.489,251.187 361.156,247.354 360.5,242.5C 360.672,234.844 357.672,228.844 351.5,224.5C 352.918,222.692 354.918,222.025 357.5,222.5 Z"/></g>
<g><path style="opacity:1" fill="#1c2529" d="M 37.5,237.5 C 57.1695,237.333 76.8362,237.5 96.5,238C 99.8818,238.176 103.215,238.676 106.5,239.5C 107.788,242.034 107.788,244.534 106.5,247C 83.5024,247.5 60.5024,247.667 37.5,247.5C 37.5,251.167 37.5,254.833 37.5,258.5C 36.7784,258.918 36.2784,259.584 36,260.5C 35.3333,255.5 35.3333,250.5 36,245.5C 37.113,244.24 37.2797,243.073 36.5,242C 40.449,241.193 40.449,240.693 36.5,240.5C 36.2627,239.209 36.596,238.209 37.5,237.5 Z"/></g>
<g><path style="opacity:0.335" fill="#3a4447" d="M -0.5,74.5 C -0.166667,74.5 0.166667,74.5 0.5,74.5C 1.48347,212.491 1.81681,350.491 1.5,488.5C 0.833333,355.5 0.166667,222.5 -0.5,89.5C -0.5,84.5 -0.5,79.5 -0.5,74.5 Z"/></g>
<g><path style="opacity:1" fill="#717e7f" d="M 38.5,277.5 C 47.4938,276.834 56.6605,276.5 66,276.5C 79.6999,276.323 93.1999,276.99 106.5,278.5C 83.8269,278.514 61.1602,278.181 38.5,277.5 Z"/></g>
<g><path style="opacity:1" fill="#0e171a" d="M 477.5,320.5 C 476.577,319.697 475.577,319.53 474.5,320C 474.833,320.333 475.167,320.667 475.5,321C 474.107,322.171 473.273,323.671 473,325.5C 471.704,323.185 469.704,322.185 467,322.5C 463.605,323.805 460.105,324.471 456.5,324.5C 456.833,327.5 455.5,328.833 452.5,328.5C 452.827,333.214 452.493,337.88 451.5,342.5C 450.513,339.232 450.18,335.898 450.5,332.5C 449.178,332.67 448.011,332.337 447,331.5C 446.798,329.744 446.298,328.078 445.5,326.5C 444.914,326.709 444.414,327.043 444,327.5C 443.501,323.179 443.334,318.846 443.5,314.5C 445.096,285.386 447.596,256.386 451,227.5C 459.872,255.989 469.205,284.322 479,312.5C 479.703,315.482 479.203,318.149 477.5,320.5 Z"/></g>
<g><path style="opacity:1" fill="#101d20" d="M 263.5,275.5 C 269.604,279.759 275.604,284.259 281.5,289C 308.349,304.097 335.183,304.93 362,291.5C 363.687,304.475 363.853,317.475 362.5,330.5C 340.492,344.169 318.825,358.336 297.5,373C 276.014,383.92 254.347,384.253 232.5,374C 211.66,360.08 190.993,345.914 170.5,331.5C 169.738,330.372 169.071,329.205 168.5,328C 168.666,316.115 168.833,303.948 169,291.5C 194.568,303.623 220.068,303.456 245.5,291C 252.504,286.998 258.504,281.832 263.5,275.5 Z"/></g>
<g><path style="opacity:0.48" fill="#87979a" d="M 37.5,291.5 C 38.404,292.209 38.7373,293.209 38.5,294.5C 51.3443,294.171 64.011,294.505 76.5,295.5C 63.5,295.5 50.5,295.5 37.5,295.5C 37.5,294.167 37.5,292.833 37.5,291.5 Z"/></g>
<g><path style="opacity:1" fill="#101b1e" d="M 443.5,314.5 C 443.334,318.846 443.501,323.179 444,327.5C 444.414,327.043 444.914,326.709 445.5,326.5C 446.298,328.078 446.798,329.744 447,331.5C 448.011,332.337 449.178,332.67 450.5,332.5C 450.18,335.898 450.513,339.232 451.5,342.5C 452.493,337.88 452.827,333.214 452.5,328.5C 455.5,328.833 456.833,327.5 456.5,324.5C 460.105,324.471 463.605,323.805 467,322.5C 469.704,322.185 471.704,323.185 473,325.5C 473.273,323.671 474.107,322.171 475.5,321C 475.167,320.667 474.833,320.333 474.5,320C 475.577,319.53 476.577,319.697 477.5,320.5C 472.601,335.858 467.934,351.191 463.5,366.5C 462.624,366.369 461.957,366.702 461.5,367.5C 460.837,371.038 459.503,374.205 457.5,377C 458.423,379.041 458.756,381.208 458.5,383.5C 452.199,405.373 446.532,427.373 441.5,449.5C 438.329,452.335 435.496,452.002 433,448.5C 432.324,443.129 432.491,437.796 433.5,432.5C 434.477,429.713 434.81,426.713 434.5,423.5C 434.762,419.32 434.762,415.32 434.5,411.5C 435.974,387.965 437.807,364.298 440,340.5C 440.924,331.654 442.091,322.988 443.5,314.5 Z"/></g>
<g><path style="opacity:1" fill="#3d4b4c" d="M 104.5,340.5 C 101.996,341.639 99.3297,342.306 96.5,342.5C 95.8333,342.5 95.1667,342.5 94.5,342.5C 97.3468,340.865 99.6801,338.532 101.5,335.5C 81.004,334.833 60.6707,334.167 40.5,333.5C 61.2276,333.213 82.2276,332.88 103.5,332.5C 105.888,332.712 106.888,334.045 106.5,336.5C 106.66,338.355 105.993,339.688 104.5,340.5 Z"/></g>
<g><path style="opacity:0.267" fill="#6d7b79" d="M 94.5,342.5 C 95.1667,342.5 95.8333,342.5 96.5,342.5C 96.0825,343.222 95.4158,343.722 94.5,344C 86.3228,344.171 78.3228,344.671 70.5,345.5C 59.1309,345.626 48.1309,345.959 37.5,346.5C 56.173,344.645 75.173,343.311 94.5,342.5 Z"/></g>
<g><path style="opacity:1" fill="#b4bbb6" d="M 104.5,340.5 C 102.273,342.229 101.273,344.562 101.5,347.5C 96.2597,347.765 91.093,348.099 86,348.5C 80.6607,347.7 75.494,346.7 70.5,345.5C 78.3228,344.671 86.3228,344.171 94.5,344C 95.4158,343.722 96.0825,343.222 96.5,342.5C 99.3297,342.306 101.996,341.639 104.5,340.5 Z"/></g>
<g><path style="opacity:1" fill="#111a1f" d="M 386.5,347.5 C 399.005,346.827 404.171,352.494 402,364.5C 399.872,367.63 397.372,370.463 394.5,373C 381.557,374.057 376.39,368.223 379,355.5C 381.028,352.308 383.528,349.641 386.5,347.5 Z"/></g>
<g><path style="opacity:0.18" fill="#92a0a6" d="M 66.5,356.5 C 73.6549,355.345 80.9882,355.178 88.5,356C 94.0981,356.067 99.4314,356.901 104.5,358.5C 91.8642,357.303 79.1975,356.637 66.5,356.5 Z"/></g>
<g><path style="opacity:1" fill="#253031" d="M 146.5,353.5 C 155.93,353.406 159.43,357.739 157,366.5C 152.752,371.596 147.585,372.763 141.5,370C 135.776,362.334 137.443,356.834 146.5,353.5 Z"/></g>
<g><path style="opacity:1" fill="#161b1e" d="M 37.5,356.5 C 47.1667,356.5 56.8333,356.5 66.5,356.5C 79.1975,356.637 91.8642,357.303 104.5,358.5C 106.766,360.193 107.1,362.36 105.5,365C 82.4966,365.439 59.4966,365.939 36.5,366.5C 34.2649,365.714 33.2649,364.048 33.5,361.5C 33.2019,358.397 34.5352,356.73 37.5,356.5 Z"/></g>
<g><path style="opacity:0.996" fill="#333e46" d="M 463.5,366.5 C 462.001,372.32 460.334,377.987 458.5,383.5C 458.756,381.208 458.423,379.041 457.5,377C 459.503,374.205 460.837,371.038 461.5,367.5C 461.957,366.702 462.624,366.369 463.5,366.5 Z"/></g>
<g><path style="opacity:1" fill="#8fa1a2" d="M 106.5,376.5 C 102.265,375.564 97.9315,375.231 93.5,375.5C 97.2734,374.042 101.273,373.542 105.5,374C 106.252,374.671 106.586,375.504 106.5,376.5 Z"/></g>
<g><path style="opacity:1" fill="#040f15" d="M 60.5,375.5 C 61.8333,375.5 63.1667,375.5 64.5,375.5C 77.1823,376.018 87.849,376.685 96.5,377.5C 96.5,378.5 96.5,379.5 96.5,380.5C 80.4965,380.333 64.4965,380.5 48.5,381C 47.6266,382.045 46.6266,382.878 45.5,383.5C 44.1667,383.5 42.8333,383.5 41.5,383.5C 40.9423,382.21 39.9423,381.377 38.5,381C 38.5,379.667 38.5,378.333 38.5,377C 46.0115,376.829 53.3448,376.329 60.5,375.5 Z"/></g>
<g><path style="opacity:1" fill="#2c4246" d="M 64.5,375.5 C 73.9957,374.766 83.6624,374.766 93.5,375.5C 97.9315,375.231 102.265,375.564 106.5,376.5C 107.384,379.243 106.551,381.576 104,383.5C 84.7023,384.545 65.2023,384.545 45.5,383.5C 46.6266,382.878 47.6266,382.045 48.5,381C 64.4965,380.5 80.4965,380.333 96.5,380.5C 96.5,379.5 96.5,378.5 96.5,377.5C 87.849,376.685 77.1823,376.018 64.5,375.5 Z"/></g>
<g><path style="opacity:0.9" fill="#0b171d" d="M 66.5,391.5 C 79.85,391.167 93.1833,391.501 106.5,392.5C 107.516,395.134 107.516,397.8 106.5,400.5C 84.1667,400.5 61.8333,400.5 39.5,400.5C 36.2819,400.349 35.9485,399.516 38.5,398C 37.1667,397 37.1667,396 38.5,395C 37.6919,394.692 37.0253,394.192 36.5,393.5C 46.6586,392.833 56.6586,392.167 66.5,391.5 Z"/></g>
<g><path style="opacity:0.008" fill="#c0cfce" d="M 434.5,411.5 C 433.833,410.167 433.833,410.167 434.5,411.5 Z"/></g>
<g><path style="opacity:1" fill="#151f21" d="M 104.5,411.5 C 106.369,413.635 107.036,416.302 106.5,419.5C 83.798,420.419 60.798,420.753 37.5,420.5C 35.9937,417.531 36.327,414.698 38.5,412C 43.1667,411.333 47.8333,411.333 52.5,412C 55.7631,412.064 58.7631,412.898 61.5,414.5C 62.2164,413.689 63.0497,413.022 64,412.5C 64.3808,413.482 65.2141,414.148 66.5,414.5C 68.3904,413.388 70.3904,412.554 72.5,412C 83.1615,411.5 93.8281,411.333 104.5,411.5 Z"/></g>
<g><path style="opacity:1" fill="#1a282b" d="M 417.5,442.5 C 415.097,440.026 413.43,437.026 412.5,433.5C 410.958,434.747 409.458,434.747 408,433.5C 406.324,434.061 404.991,435.061 404,436.5C 403.29,435.027 402.124,434.36 400.5,434.5C 400.617,432.516 399.95,430.85 398.5,429.5C 393.601,426.853 388.601,424.353 383.5,422C 383.605,419.538 385.271,418.371 388.5,418.5C 388.5,417.5 388.5,416.5 388.5,415.5C 386.061,416.053 383.727,416.053 381.5,415.5C 381.437,418.191 379.77,419.024 376.5,418C 377.5,417.667 378.5,417.333 379.5,417C 377.19,416.503 374.857,416.337 372.5,416.5C 372.5,420.5 372.5,424.5 372.5,428.5C 371.127,428.343 369.793,428.51 368.5,429C 370.271,429.535 370.604,430.369 369.5,431.5C 367.147,430.435 364.814,430.602 362.5,432C 353.149,432.832 343.816,432.665 334.5,431.5C 332.088,429.465 332.755,428.465 336.5,428.5C 343.762,430.53 351.096,430.863 358.5,429.5C 357.833,428.833 357.167,428.167 356.5,427.5C 340.514,426.501 324.514,426.167 308.5,426.5C 308.5,424.5 308.5,422.5 308.5,420.5C 305.833,420.5 303.167,420.5 300.5,420.5C 300.5,422.167 300.5,423.833 300.5,425.5C 297.833,425.5 295.167,425.5 292.5,425.5C 292.5,426.5 292.5,427.5 292.5,428.5C 281.833,428.5 271.167,428.5 260.5,428.5C 260.18,431.898 260.513,435.232 261.5,438.5C 264.326,437.129 265.826,438.129 266,441.5C 267.008,441.018 268.175,440.852 269.5,441C 268.396,439.869 268.729,439.035 270.5,438.5C 272.398,439.734 274.065,439.401 275.5,437.5C 276.086,437.709 276.586,438.043 277,438.5C 278.57,437.642 280.237,436.975 282,436.5C 284.102,437.038 284.935,438.038 284.5,439.5C 286.283,437.321 288.283,437.321 290.5,439.5C 291.833,438.5 293.167,437.5 294.5,436.5C 296.042,437.747 297.542,437.747 299,436.5C 301.058,437.109 301.891,438.109 301.5,439.5C 302.719,438.737 303.719,437.737 304.5,436.5C 305.541,438.991 306.374,438.991 307,436.5C 309.359,439.038 310.859,438.371 311.5,434.5C 313.868,436.223 316.534,436.89 319.5,436.5C 319.5,462.833 319.5,489.167 319.5,515.5C 318.502,492.006 318.169,468.339 318.5,444.5C 316.669,443.948 315.003,443.948 313.5,444.5C 312.833,470.664 312.167,496.664 311.5,522.5C 311.833,496.491 311.5,470.491 310.5,444.5C 308.013,444.782 305.347,444.782 302.5,444.5C 298.251,442.595 295.918,443.929 295.5,448.5C 295.167,448.5 294.833,448.5 294.5,448.5C 294.328,444.029 293.494,443.696 292,447.5C 291.259,446.359 290.425,446.359 289.5,447.5C 288.757,446.092 287.923,444.759 287,443.5C 286.517,444.448 286.351,445.448 286.5,446.5C 285.596,445.791 285.263,444.791 285.5,443.5C 283.533,443.261 281.699,443.594 280,444.5C 279.667,471.5 279.333,498.5 279,525.5C 276.566,530.658 273.899,530.658 271,525.5C 270.503,523.19 270.337,520.857 270.5,518.5C 271.165,520.369 271.831,522.369 272.5,524.5C 273.731,523.349 273.731,522.183 272.5,521C 273.127,518.657 274.127,516.49 275.5,514.5C 275.833,510.833 276.167,507.167 276.5,503.5C 276.694,483.506 276.694,463.839 276.5,444.5C 274.533,444.261 272.699,444.594 271,445.5C 270.5,469.164 270.333,492.831 270.5,516.5C 269.833,492.33 269.167,467.997 268.5,443.5C 267.167,442.167 265.833,442.167 264.5,443.5C 263.83,445.291 263.163,446.958 262.5,448.5C 262.66,446.801 262.494,445.134 262,443.5C 260.629,443.243 259.129,443.577 257.5,444.5C 255.971,444.471 254.804,443.804 254,442.5C 253.51,443.793 253.343,445.127 253.5,446.5C 252.596,445.791 252.263,444.791 252.5,443.5C 250.5,443.5 248.5,443.5 246.5,443.5C 246.831,470.339 246.498,497.005 245.5,523.5C 245.667,496.498 245.5,469.498 245,442.5C 244.632,443.91 243.799,444.91 242.5,445.5C 240.899,444.835 239.399,444.501 238,444.5C 237.5,467.831 237.333,491.164 237.5,514.5C 236.668,491.337 236.168,468.004 236,444.5C 234,443.167 232,443.167 230,444.5C 229.832,471.336 229.332,498.003 228.5,524.5C 228.833,498.825 228.5,473.158 227.5,447.5C 224.749,448.341 222.582,447.341 221,444.5C 220.536,445.094 220.369,445.761 220.5,446.5C 219.596,445.791 219.263,444.791 219.5,443.5C 217.5,443.5 215.5,443.5 213.5,443.5C 213.729,470.48 213.229,497.48 212,524.5C 209.865,529.325 207.199,529.659 204,525.5C 203.667,498.5 203.333,471.5 203,444.5C 200.962,442.227 198.795,442.227 196.5,444.5C 196.38,443.414 195.713,442.747 194.5,442.5C 192.267,443.615 190.101,443.615 188,442.5C 187.5,468.831 187.333,495.165 187.5,521.5C 186.833,495.664 186.167,469.664 185.5,443.5C 183.519,442.911 181.519,443.245 179.5,444.5C 178.697,443.577 178.53,442.577 179,441.5C 180.987,440.782 182.821,439.782 184.5,438.5C 189.431,441.783 194.765,442.45 200.5,440.5C 200.5,439.167 200.5,437.833 200.5,436.5C 199.178,436.33 198.011,436.663 197,437.5C 196.814,435.1 196.314,432.766 195.5,430.5C 191.492,432.003 187.325,432.67 183,432.5C 176.29,431.446 169.623,430.779 163,430.5C 161.333,431.5 159.667,432.5 158,433.5C 155.679,432.178 153.512,430.678 151.5,429C 154.976,427.564 155.309,425.564 152.5,423C 153.19,421.079 153.524,419.245 153.5,417.5C 152.15,416.05 150.484,415.383 148.5,415.5C 150.562,414.224 152.896,413.39 155.5,413C 164.411,412.819 173.245,412.319 182,411.5C 248.942,411.517 316.109,411.683 383.5,412C 400.724,415.73 412.058,425.897 417.5,442.5 Z"/></g>
<g><path style="opacity:0.008" fill="#c0cdcc" d="M 432.5,418.5 C 433.833,419.167 433.833,419.167 432.5,418.5 Z"/></g>
<g><path style="opacity:1" fill="#142128" d="M 483.5,409.5 C 489.782,409.448 493.782,412.448 495.5,418.5C 493.092,423.077 489.592,426.41 485,428.5C 479.871,427.371 476.704,424.204 475.5,419C 476.606,414.403 479.273,411.236 483.5,409.5 Z"/></g>
<g><path style="opacity:0.043" fill="#b8c3c3" d="M 432.5,420.5 C 433.833,421.167 433.833,421.167 432.5,420.5 Z"/></g>
<g><path style="opacity:1" fill="#111a20" d="M 148.5,415.5 C 150.484,415.383 152.15,416.05 153.5,417.5C 153.524,419.245 153.19,421.079 152.5,423C 155.309,425.564 154.976,427.564 151.5,429C 153.512,430.678 155.679,432.178 158,433.5C 159.667,432.5 161.333,431.5 163,430.5C 169.623,430.779 176.29,431.446 183,432.5C 187.325,432.67 191.492,432.003 195.5,430.5C 196.314,432.766 196.814,435.1 197,437.5C 198.011,436.663 199.178,436.33 200.5,436.5C 200.5,437.833 200.5,439.167 200.5,440.5C 194.765,442.45 189.431,441.783 184.5,438.5C 182.821,439.782 180.987,440.782 179,441.5C 178.53,442.577 178.697,443.577 179.5,444.5C 179.667,471.169 179.5,497.835 179,524.5C 177.315,530.748 174.649,531.082 171,525.5C 170.084,498.131 169.584,470.798 169.5,443.5C 167.208,443.244 165.041,443.577 163,444.5C 162.667,471.833 162.333,499.167 162,526.5C 161,527.5 160,528.5 159,529.5C 156.86,528.272 155.193,526.605 154,524.5C 153.667,498.5 153.333,472.5 153,446.5C 150.238,442.56 147.738,442.893 145.5,447.5C 144.549,448.919 144.216,450.585 144.5,452.5C 142.549,452.227 141.049,452.893 140,454.5C 139.259,450.815 137.759,450.149 135.5,452.5C 134.572,450.665 133.406,450.332 132,451.5C 128.398,445.156 128.231,438.49 131.5,431.5C 130.873,430.583 130.539,429.583 130.5,428.5C 134.73,421.718 140.73,417.385 148.5,415.5 Z"/></g>
<g><path style="opacity:1" fill="#121d23" d="M 417.5,442.5 C 418.615,452.12 418.782,461.786 418,471.5C 415.199,489.443 412.865,507.443 411,525.5C 408.822,529.065 406.156,529.399 403,526.5C 402.667,499.833 402.333,473.167 402,446.5C 400.173,444.144 398.007,443.477 395.5,444.5C 393.828,441.663 394.494,440.996 397.5,442.5C 398.364,440.803 399.697,439.637 401.5,439C 400.069,438.535 398.903,437.701 398,436.5C 394.968,436.852 391.968,437.185 389,437.5C 388.493,436.004 388.993,434.837 390.5,434C 389.5,433.833 388.5,433.667 387.5,433.5C 386.06,434.87 383.727,435.87 380.5,436.5C 383.333,439.998 382.667,441.498 378.5,441C 380.502,442.019 382.502,442.852 384.5,443.5C 382.5,443.5 380.5,443.5 378.5,443.5C 378.83,463.007 378.497,482.341 377.5,501.5C 377.667,482.164 377.5,462.83 377,443.5C 376.691,442.234 376.191,441.067 375.5,440C 375.833,439 376.167,438 376.5,437C 375.207,436.51 373.873,436.343 372.5,436.5C 372.5,437.833 372.5,439.167 372.5,440.5C 371.5,440.5 370.5,440.5 369.5,440.5C 369.5,441.5 369.5,442.5 369.5,443.5C 368.833,443.5 368.167,443.5 367.5,443.5C 365.533,443.261 363.699,443.594 362,444.5C 361.667,471.167 361.333,497.833 361,524.5C 358.951,530.634 356.284,530.968 353,525.5C 352.667,499.167 352.333,472.833 352,446.5C 350.713,443.855 348.547,442.855 345.5,443.5C 345.831,466.673 345.498,489.673 344.5,512.5C 344.5,489.833 344.5,467.167 344.5,444.5C 341.832,444.334 339.498,443.334 337.5,441.5C 335.889,442.32 335.222,443.654 335.5,445.5C 333.038,442.947 330.705,442.947 328.5,445.5C 328.157,472.055 327.157,498.555 325.5,525C 325.833,525.333 326.167,525.667 326.5,526C 325.333,526.5 324.5,527.333 324,528.5C 323.329,527.748 322.496,527.414 321.5,527.5C 319.657,523.813 318.99,519.813 319.5,515.5C 319.5,489.167 319.5,462.833 319.5,436.5C 316.534,436.89 313.868,436.223 311.5,434.5C 310.859,438.371 309.359,439.038 307,436.5C 306.374,438.991 305.541,438.991 304.5,436.5C 303.719,437.737 302.719,438.737 301.5,439.5C 301.891,438.109 301.058,437.109 299,436.5C 297.542,437.747 296.042,437.747 294.5,436.5C 293.167,437.5 291.833,438.5 290.5,439.5C 288.283,437.321 286.283,437.321 284.5,439.5C 284.935,438.038 284.102,437.038 282,436.5C 280.237,436.975 278.57,437.642 277,438.5C 276.586,438.043 276.086,437.709 275.5,437.5C 274.065,439.401 272.398,439.734 270.5,438.5C 268.729,439.035 268.396,439.869 269.5,441C 268.175,440.852 267.008,441.018 266,441.5C 265.826,438.129 264.326,437.129 261.5,438.5C 260.513,435.232 260.18,431.898 260.5,428.5C 271.167,428.5 281.833,428.5 292.5,428.5C 292.5,427.5 292.5,426.5 292.5,425.5C 295.167,425.5 297.833,425.5 300.5,425.5C 300.5,423.833 300.5,422.167 300.5,420.5C 303.167,420.5 305.833,420.5 308.5,420.5C 308.5,422.5 308.5,424.5 308.5,426.5C 324.514,426.167 340.514,426.501 356.5,427.5C 357.167,428.167 357.833,428.833 358.5,429.5C 351.096,430.863 343.762,430.53 336.5,428.5C 332.755,428.465 332.088,429.465 334.5,431.5C 343.816,432.665 353.149,432.832 362.5,432C 364.814,430.602 367.147,430.435 369.5,431.5C 370.604,430.369 370.271,429.535 368.5,429C 369.793,428.51 371.127,428.343 372.5,428.5C 372.5,424.5 372.5,420.5 372.5,416.5C 374.857,416.337 377.19,416.503 379.5,417C 378.5,417.333 377.5,417.667 376.5,418C 379.77,419.024 381.437,418.191 381.5,415.5C 383.727,416.053 386.061,416.053 388.5,415.5C 388.5,416.5 388.5,417.5 388.5,418.5C 385.271,418.371 383.605,419.538 383.5,422C 388.601,424.353 393.601,426.853 398.5,429.5C 399.95,430.85 400.617,432.516 400.5,434.5C 402.124,434.36 403.29,435.027 404,436.5C 404.991,435.061 406.324,434.061 408,433.5C 409.458,434.747 410.958,434.747 412.5,433.5C 413.43,437.026 415.097,440.026 417.5,442.5 Z"/></g>
<g><path style="opacity:0.396" fill="#7a868a" d="M 434.5,423.5 C 434.81,426.713 434.477,429.713 433.5,432.5C 433.777,429.552 433.444,426.719 432.5,424C 433.094,423.536 433.761,423.369 434.5,423.5 Z"/></g>
<g><path style="opacity:1" fill="#1a2225" d="M 68.5,429.5 C 80.6902,428.238 93.0235,428.404 105.5,430C 107.536,432.5 107.87,435.167 106.5,438C 83.819,439.602 61.1524,439.769 38.5,438.5C 37.828,437.733 36.9947,437.066 36,436.5C 35.3333,433.833 35.3333,431.167 36,428.5C 41.2541,429.807 46.7541,430.474 52.5,430.5C 58.0108,430.499 63.3441,430.166 68.5,429.5 Z"/></g>
<g><path style="opacity:1" fill="#181d20" d="M 395.5,444.5 C 395.667,469.502 395.5,494.502 395,519.5C 395.433,523.821 393.933,527.154 390.5,529.5C 388.473,528.307 386.973,526.64 386,524.5C 385.77,497.486 385.27,470.486 384.5,443.5C 382.502,442.852 380.502,442.019 378.5,441C 382.667,441.498 383.333,439.998 380.5,436.5C 383.727,435.87 386.06,434.87 387.5,433.5C 388.5,433.667 389.5,433.833 390.5,434C 388.993,434.837 388.493,436.004 389,437.5C 391.968,437.185 394.968,436.852 398,436.5C 398.903,437.701 400.069,438.535 401.5,439C 399.697,439.637 398.364,440.803 397.5,442.5C 394.494,440.996 393.828,441.663 395.5,444.5 Z"/></g>
<g><path style="opacity:0.953" fill="#586569" d="M 527.5,441.5 C 529.975,444.251 530.975,447.584 530.5,451.5C 528.723,448.495 527.723,445.162 527.5,441.5 Z"/></g>
<g><path style="opacity:1" fill="#061015" d="M 228.5,524.5 C 227.267,530.587 224.767,530.92 221,525.5C 220.5,499.169 220.333,472.835 220.5,446.5C 220.369,445.761 220.536,445.094 221,444.5C 222.582,447.341 224.749,448.341 227.5,447.5C 228.5,473.158 228.833,498.825 228.5,524.5 Z"/></g>
<g><path style="opacity:1" fill="#0e161b" d="M 481.5,440.5 C 491.679,439.852 496.845,444.519 497,454.5C 493.916,463.126 488.083,465.959 479.5,463C 471.173,454.775 471.839,447.275 481.5,440.5 Z"/></g>
<g><path style="opacity:0.998" fill="#151f25" d="M 39.5,457.5 C 37.3227,456.635 36.3227,454.968 36.5,452.5C 36.1104,450.018 37.1104,448.685 39.5,448.5C 61.5392,447.399 83.5392,447.233 105.5,448C 107.595,450.665 107.928,453.498 106.5,456.5C 84.1473,456.233 61.814,456.566 39.5,457.5 Z"/></g>
<g><path style="opacity:1" fill="#070f16" d="M 270.5,518.5 C 270.5,517.833 270.5,517.167 270.5,516.5C 270.333,492.831 270.5,469.164 271,445.5C 272.699,444.594 274.533,444.261 276.5,444.5C 276.694,463.839 276.694,483.506 276.5,503.5C 276.167,507.167 275.833,510.833 275.5,514.5C 274.127,516.49 273.127,518.657 272.5,521C 273.731,522.183 273.731,523.349 272.5,524.5C 271.831,522.369 271.165,520.369 270.5,518.5 Z"/></g>
<g><path style="opacity:1" fill="#121e21" d="M 130.5,428.5 C 130.539,429.583 130.873,430.583 131.5,431.5C 128.231,438.49 128.398,445.156 132,451.5C 133.406,450.332 134.572,450.665 135.5,452.5C 137.759,450.149 139.259,450.815 140,454.5C 141.049,452.893 142.549,452.227 144.5,452.5C 144.216,450.585 144.549,448.919 145.5,447.5C 145.271,467.178 145.605,486.844 146.5,506.5C 146.11,513.175 145.61,519.842 145,526.5C 143.062,528.978 140.895,529.145 138.5,527C 136.098,524.297 134.765,521.13 134.5,517.5C 134.876,512.727 133.876,508.393 131.5,504.5C 127.805,486.159 125.138,467.659 123.5,449C 123.474,441.248 125.808,434.414 130.5,428.5 Z"/></g>
<g><path style="opacity:0.059" fill="#95a1a1" d="M 540.5,453.5 C 539.666,454.748 538.333,455.415 536.5,455.5C 534.955,455.489 533.622,455.156 532.5,454.5C 534.124,454.64 535.29,453.973 536,452.5C 537.468,454.036 538.968,454.37 540.5,453.5 Z"/></g>
<g><path style="opacity:1" fill="#0e151b" d="M 262.5,448.5 C 263.229,466.002 263.229,483.336 262.5,500.5C 261.673,505.651 261.173,510.984 261,516.5C 260.091,513.089 259.091,509.755 258,506.5C 257.355,507.646 256.522,508.646 255.5,509.5C 256.61,514.111 256.777,518.778 256,523.5C 255.667,522.5 255.333,521.5 255,520.5C 254.832,496.663 254.332,472.996 253.5,449.5C 253.5,448.5 253.5,447.5 253.5,446.5C 253.343,445.127 253.51,443.793 254,442.5C 254.804,443.804 255.971,444.471 257.5,444.5C 259.129,443.577 260.629,443.243 262,443.5C 262.494,445.134 262.66,446.801 262.5,448.5 Z"/></g>
<g><path style="opacity:1" fill="#040f16" d="M 245.5,523.5 C 245.736,526.226 244.903,528.559 243,530.5C 237.891,526.436 236.058,521.103 237.5,514.5C 237.333,491.164 237.5,467.831 238,444.5C 239.399,444.501 240.899,444.835 242.5,445.5C 243.799,444.91 244.632,443.91 245,442.5C 245.5,469.498 245.667,496.498 245.5,523.5 Z"/></g>
<g><path style="opacity:1" fill="#0d1217" d="M 344.5,512.5 C 344.666,517.179 344.499,521.845 344,526.5C 340.595,530.494 337.928,529.827 336,524.5C 335.5,498.169 335.333,471.835 335.5,445.5C 335.222,443.654 335.889,442.32 337.5,441.5C 339.498,443.334 341.832,444.334 344.5,444.5C 344.5,467.167 344.5,489.833 344.5,512.5 Z"/></g>
<g><path style="opacity:1" fill="#151f21" d="M 38.5,466.5 C 61.1667,466.5 83.8333,466.5 106.5,466.5C 106.5,469.5 106.5,472.5 106.5,475.5C 84.1744,476.236 61.8411,476.569 39.5,476.5C 39.8452,474.365 38.8452,472.532 36.5,471C 36.899,469.272 37.5657,467.772 38.5,466.5 Z"/></g>
<g><path style="opacity:1" fill="#121d23" d="M 196.5,444.5 C 196.925,471.47 196.425,498.47 195,525.5C 193.35,530.486 191.016,530.819 188,526.5C 187.506,524.866 187.34,523.199 187.5,521.5C 187.333,495.165 187.5,468.831 188,442.5C 190.101,443.615 192.267,443.615 194.5,442.5C 195.713,442.747 196.38,443.414 196.5,444.5 Z"/></g>
<g><path style="opacity:1" fill="#030e17" d="M 377.5,501.5 C 377.666,509.84 377.5,518.173 377,526.5C 374.872,530.376 372.539,530.376 370,526.5C 369.503,523.854 369.336,521.187 369.5,518.5C 369.5,493.5 369.5,468.5 369.5,443.5C 369.5,442.5 369.5,441.5 369.5,440.5C 370.5,440.5 371.5,440.5 372.5,440.5C 372.5,439.167 372.5,437.833 372.5,436.5C 373.873,436.343 375.207,436.51 376.5,437C 376.167,438 375.833,439 375.5,440C 376.191,441.067 376.691,442.234 377,443.5C 377.5,462.83 377.667,482.164 377.5,501.5 Z"/></g>
<g><path style="opacity:0.112" fill="#b3bfc0" d="M 367.5,443.5 C 368.167,443.5 368.833,443.5 369.5,443.5C 369.5,468.5 369.5,493.5 369.5,518.5C 368.824,493.598 368.158,468.598 367.5,443.5 Z"/></g>
<g><path style="opacity:0.221" fill="#93a0a6" d="M 105.5,487.5 C 90.8333,487.5 76.1667,487.5 61.5,487.5C 70.3308,486.647 79.3308,485.98 88.5,485.5C 94.3557,485.816 100.022,486.483 105.5,487.5 Z"/></g>
<g><path style="opacity:1" fill="#3a474b" d="M 39.5,487.5 C 46.8333,487.5 54.1667,487.5 61.5,487.5C 76.1667,487.5 90.8333,487.5 105.5,487.5C 106.167,487.5 106.5,487.833 106.5,488.5C 89.1528,488.254 71.8195,488.587 54.5,489.5C 49.2991,489.259 44.2991,488.592 39.5,487.5 Z"/></g>
<g><path style="opacity:1" fill="#0f181c" d="M 481.5,480.5 C 491.486,480.08 498.653,484.413 503,493.5C 505.185,505.625 500.352,513.458 488.5,517C 471.571,516.681 465.071,508.181 469,491.5C 472.124,486.536 476.291,482.87 481.5,480.5 Z"/></g>
<g><path style="opacity:0.915" fill="#31504c" d="M 294.5,448.5 C 294.833,448.5 295.167,448.5 295.5,448.5C 295.417,461.343 295.75,474.177 296.5,487C 296.08,500.005 295.413,512.838 294.5,525.5C 294.5,499.833 294.5,474.167 294.5,448.5 Z"/></g>
<g><path style="opacity:1" fill="#12191d" d="M 302.5,444.5 C 305.347,444.782 308.013,444.782 310.5,444.5C 311.5,470.491 311.833,496.491 311.5,522.5C 311.634,524.292 311.301,525.958 310.5,527.5C 308.435,527.483 306.435,527.15 304.5,526.5C 303.91,525.234 303.41,523.901 303,522.5C 302.5,496.502 302.333,470.502 302.5,444.5 Z"/></g>
<g><path style="opacity:1" fill="#020f14" d="M 205.5,444.5 C 206.5,444.5 207.5,444.5 208.5,444.5C 208.5,445.5 208.5,446.5 208.5,447.5C 209.5,447.5 210.5,447.5 211.5,447.5C 211.972,456.605 211.305,465.605 209.5,474.5C 210.451,484.467 210.784,494.467 210.5,504.5C 209.167,504.5 207.833,504.5 206.5,504.5C 205.846,508.839 206.846,512.673 209.5,516C 207.821,518.565 207.154,521.398 207.5,524.5C 206.5,524.5 205.5,524.5 204.5,524.5C 204.193,497.801 204.526,471.135 205.5,444.5 Z"/></g>
<g><path style="opacity:1" fill="#10171e" d="M 294.5,448.5 C 294.5,474.167 294.5,499.833 294.5,525.5C 294.288,527.384 293.288,528.717 291.5,529.5C 289.473,528.307 287.973,526.64 287,524.5C 286.799,504.149 286.299,483.816 285.5,463.5C 286.355,457.866 286.688,452.199 286.5,446.5C 286.351,445.448 286.517,444.448 287,443.5C 287.923,444.759 288.757,446.092 289.5,447.5C 290.425,446.359 291.259,446.359 292,447.5C 293.494,443.696 294.328,444.029 294.5,448.5 Z"/></g>
<g><path style="opacity:0.443" fill="#616f72" d="M 328.5,445.5 C 328.667,472.169 328.5,498.835 328,525.5C 326.53,529.609 324.364,530.276 321.5,527.5C 322.496,527.414 323.329,527.748 324,528.5C 324.5,527.333 325.333,526.5 326.5,526C 326.167,525.667 325.833,525.333 325.5,525C 327.157,498.555 328.157,472.055 328.5,445.5 Z"/></g>
<g><path style="opacity:0.761" fill="#424d4f" d="M 131.5,504.5 C 133.876,508.393 134.876,512.727 134.5,517.5C 133.137,513.368 132.137,509.035 131.5,504.5 Z"/></g>
<g><path style="opacity:1" fill="#141e25" d="M 253.5,449.5 C 254.332,472.996 254.832,496.663 255,520.5C 255.333,521.5 255.667,522.5 256,523.5C 256.777,518.778 256.61,514.111 255.5,509.5C 256.522,508.646 257.355,507.646 258,506.5C 259.091,509.755 260.091,513.089 261,516.5C 261.173,510.984 261.673,505.651 262.5,500.5C 262.666,509.173 262.5,517.84 262,526.5C 259.667,530.5 257.333,530.5 255,526.5C 254.667,525.167 254.333,523.833 254,522.5C 253.5,498.169 253.333,473.836 253.5,449.5 Z"/></g>
<g><path style="opacity:0.996" fill="#404e4f" d="M 72.5,526.5 C 69.4498,528.101 66.1165,529.101 62.5,529.5C 63.6782,528.001 65.3449,527.001 67.5,526.5C 66.4937,525.604 66.4937,524.938 67.5,524.5C 68.8415,526.005 70.5082,526.672 72.5,526.5 Z"/></g>
<g><path style="opacity:0.639" fill="#596266" d="M 304.5,526.5 C 306.435,527.15 308.435,527.483 310.5,527.5C 308.348,529.812 306.348,529.478 304.5,526.5 Z"/></g>
</svg>
